<?xml version="1.0" standalone="no"?>
<!DOCTYPE svg PUBLIC "-//W3C//DTD SVG 20010904//EN"
 "http://www.w3.org/TR/2001/REC-SVG-20010904/DTD/svg10.dtd">
<svg version="1.0" xmlns="http://www.w3.org/2000/svg"
 width="2250.000000pt" height="2028.000000pt" viewBox="0 0 2250.000000 2028.000000"
 preserveAspectRatio="xMidYMid meet">

<g transform="translate(0.000000,2028.000000) scale(0.100000,-0.100000)"
fill="#000000" stroke="none">
<path d="M18534 15916 c-7 -7 -20 -28 -29 -47 -10 -19 -24 -41 -32 -50 -7 -9
-13 -20 -11 -25 1 -5 -11 -29 -27 -54 -16 -25 -41 -65 -56 -90 -16 -25 -35
-52 -44 -61 -8 -9 -15 -19 -15 -23 0 -4 -16 -28 -35 -53 -19 -25 -35 -52 -35
-59 0 -8 -4 -14 -9 -14 -4 0 -23 -35 -41 -77 -19 -43 -37 -82 -42 -87 -16 -19
-8 -26 11 -8 52 47 104 87 114 87 7 1 11 6 10 13 -3 14 58 62 80 62 22 0 59
51 53 74 -4 14 -2 16 6 8 9 -9 16 -7 30 5 26 23 58 27 58 7 0 -8 5 -12 10 -9
6 4 8 11 5 16 -3 5 1 6 11 2 13 -5 15 -2 10 15 -4 11 -2 23 4 27 6 3 8 10 5
15 -3 5 17 8 45 6 50 -2 50 -2 24 12 -26 14 -27 15 -9 28 10 8 22 14 27 14 4
0 8 7 8 16 0 14 2 14 15 0 9 -8 23 -12 31 -9 23 9 9 68 -28 119 -31 44 -66 68
-54 39 5 -13 2 -14 -15 -4 -16 8 -18 14 -10 22 8 8 5 14 -11 24 -13 7 -18 12
-11 13 9 0 9 8 2 30 -12 32 -27 37 -45 16z m163 -241 c0 -8 -4 -12 -9 -9 -5 3
-6 10 -3 15 9 13 12 11 12 -6z"/>
<path d="M3901 15869 c-30 -36 -119 -156 -130 -176 -11 -21 -10 -23 14 -23 15
0 24 -4 20 -9 -3 -5 7 -11 22 -13 20 -2 27 -8 25 -20 -1 -9 2 -20 8 -23 8 -5
6 -13 -6 -26 -9 -10 -13 -19 -8 -19 5 0 -2 -7 -14 -16 -13 -9 -21 -22 -18 -30
3 -8 1 -14 -5 -14 -6 0 -7 -5 -3 -11 10 -17 54 35 49 60 -2 14 1 21 11 21 8 0
14 5 14 12 0 6 3 8 7 5 3 -4 12 -2 20 4 9 9 13 8 13 0 0 -6 7 -11 15 -11 8 0
15 -7 15 -15 0 -8 5 -15 11 -15 5 0 8 4 5 9 -6 10 24 25 32 16 3 -3 0 -5 -6
-5 -7 0 -12 -4 -12 -9 0 -5 11 -8 25 -6 14 1 25 -1 25 -5 0 -11 72 -91 78 -86
3 3 10 2 16 -4 7 -5 18 -5 26 0 13 8 13 11 -1 22 -9 7 -25 34 -35 60 -11 27
-25 48 -32 48 -7 0 -17 12 -24 28 -33 81 -50 113 -73 138 -14 15 -25 32 -25
38 0 6 -11 28 -24 50 -19 31 -25 36 -35 25z m0 -76 c13 -16 12 -17 -3 -4 -10
7 -18 15 -18 17 0 8 8 3 21 -13z"/>
<path d="M6235 15640 c3 -5 8 -10 11 -10 2 0 4 5 4 10 0 6 -5 10 -11 10 -5 0
-7 -4 -4 -10z"/>
<path d="M16160 15624 c0 -8 4 -14 10 -14 5 0 25 -14 45 -31 19 -17 35 -27 35
-21 0 5 -11 18 -25 28 -14 10 -25 24 -25 30 0 7 -9 14 -20 17 -13 3 -20 0 -20
-9z"/>
<path d="M3701 15602 c-17 -31 -13 -40 5 -14 9 13 14 26 11 29 -3 2 -10 -4
-16 -15z"/>
<path d="M3746 15568 c3 -5 10 -6 15 -3 13 9 11 12 -6 12 -8 0 -12 -4 -9 -9z"/>
<path d="M3643 15526 c-87 -111 -241 -352 -231 -361 12 -10 95 -49 101 -47 4
1 7 -4 7 -12 0 -8 14 -17 31 -21 17 -4 33 -13 36 -21 3 -8 16 -14 29 -14 29 0
74 -27 74 -45 0 -12 41 -35 62 -35 25 0 87 -36 91 -53 3 -10 9 -17 14 -15 13
3 56 -13 84 -33 14 -10 37 -21 52 -24 15 -4 25 -11 22 -15 -6 -9 60 -50 81
-50 8 0 14 -6 14 -14 0 -12 24 -25 40 -22 3 1 16 -9 29 -21 13 -12 41 -25 63
-28 28 -5 42 -13 46 -27 2 -10 26 -30 53 -43 26 -14 50 -29 53 -34 3 -5 17 -8
30 -7 16 2 26 -3 29 -13 2 -9 30 -30 61 -46 32 -17 62 -36 68 -42 5 -7 34 -24
63 -37 28 -14 64 -41 79 -61 17 -22 36 -35 50 -35 12 0 27 -5 33 -11 18 -18
42 -4 36 20 -3 12 -9 21 -14 21 -5 0 -9 6 -9 14 0 7 -7 19 -16 27 -20 16 -84
113 -84 127 0 6 -11 23 -24 39 -13 15 -33 46 -45 68 -12 22 -33 58 -46 80 -14
22 -27 48 -31 58 -3 9 -10 17 -15 17 -5 0 -9 6 -9 14 0 7 -9 25 -20 39 -11 14
-20 32 -20 39 0 8 -12 25 -26 39 -14 13 -32 36 -40 52 -8 15 -21 27 -29 27 -8
0 -27 16 -42 35 -15 19 -32 35 -36 35 -8 0 -57 32 -90 60 -10 8 -35 16 -54 17
-20 1 -40 6 -46 12 -5 5 -17 7 -26 4 -13 -5 -14 -3 -3 8 16 17 15 29 -3 29 -8
0 -22 9 -32 19 -10 11 -31 23 -46 27 -17 4 -24 9 -17 14 15 9 -4 23 -57 40
-43 13 -52 23 -32 36 7 4 2 11 -13 18 -28 15 -35 12 -19 -8 7 -8 8 -17 3 -20
-9 -5 -64 27 -63 38 3 20 -1 26 -14 26 -9 0 -18 7 -21 15 -4 8 -10 12 -15 9
-5 -3 -12 2 -15 10 -3 9 -14 16 -24 16 -11 0 -22 5 -25 10 -4 6 -11 8 -16 5
-5 -4 -9 -1 -9 4 0 6 -6 11 -12 11 -7 0 -20 5 -28 10 -12 8 -11 13 9 33 12 14
19 27 14 30 -4 2 -22 -14 -40 -37z m932 -875 c3 -5 1 -12 -5 -16 -5 -3 -10 1
-10 9 0 18 6 21 15 7z"/>
<path d="M18800 15550 c0 -11 -7 -23 -15 -26 -8 -4 -13 -9 -10 -13 6 -10 -70
-74 -92 -77 -10 -2 -19 -8 -21 -13 -2 -6 -10 -11 -18 -11 -9 0 -12 -4 -9 -10
3 -5 1 -10 -4 -10 -6 0 -11 -7 -11 -16 0 -9 -6 -14 -12 -12 -15 5 -69 -48 -59
-58 3 -4 -1 -5 -11 -1 -10 4 -30 -7 -56 -31 -62 -57 -109 -92 -121 -92 -10 0
-15 -13 -12 -32 0 -4 -13 -17 -29 -30 -53 -41 -124 -98 -145 -116 -11 -10 -37
-31 -58 -46 -20 -15 -35 -32 -32 -37 4 -5 1 -10 -4 -10 -6 -1 -15 -2 -21 -3
-5 0 -15 -8 -22 -18 -7 -9 -22 -18 -33 -20 -11 -2 -24 -13 -31 -25 -15 -31
-58 -70 -72 -65 -15 5 -52 -16 -52 -30 0 -6 -15 -26 -34 -44 -18 -18 -64 -81
-102 -141 -38 -59 -71 -110 -74 -113 -4 -3 -24 -36 -46 -74 -21 -38 -47 -80
-56 -95 -9 -14 -29 -48 -43 -76 -15 -27 -38 -61 -51 -76 -26 -27 -30 -62 -11
-95 19 -33 54 -74 63 -74 5 0 32 24 60 53 28 28 57 57 65 62 8 6 41 33 73 60
33 28 72 59 87 70 41 30 160 129 192 159 15 14 30 26 32 26 9 0 100 72 104 82
7 19 73 82 88 84 9 2 28 14 42 28 15 14 30 26 34 26 3 0 23 11 43 25 20 14 33
25 29 25 -4 0 9 11 29 25 20 14 41 25 46 25 6 0 10 5 10 11 0 5 4 8 9 4 5 -3
12 4 16 15 4 11 10 18 15 15 5 -3 11 9 15 26 4 17 9 28 12 25 3 -3 13 5 23 17
16 19 20 20 36 7 11 -8 16 -11 13 -7 -8 9 36 57 51 57 6 0 10 5 10 11 0 5 5 7
10 4 6 -3 10 -1 10 4 0 6 6 10 13 9 6 -2 11 4 9 13 -1 9 8 21 20 28 68 36 121
73 151 106 16 16 34 29 40 28 7 -2 5 3 -4 9 -15 10 -13 13 15 28 18 10 38 13
47 9 12 -6 20 -1 29 19 7 15 14 33 16 40 5 25 27 42 45 37 11 -4 19 -2 19 4 0
16 -52 99 -122 197 -35 49 -71 101 -81 117 -20 32 -47 36 -47 7z"/>
<path d="M18634 15539 c-3 -6 -2 -15 3 -20 5 -5 9 -1 9 11 0 23 -2 24 -12 9z"/>
<path d="M16274 15524 c3 -8 6 -18 6 -20 0 -2 7 -4 15 -4 18 0 9 26 -12 34
-11 5 -13 2 -9 -10z"/>
<path d="M16350 15461 c0 -5 7 -14 15 -21 16 -13 45 -7 45 10 0 6 -4 8 -10 5
-5 -3 -10 -1 -10 4 0 6 -9 11 -20 11 -11 0 -20 -4 -20 -9z"/>
<path d="M4055 15400 c3 -5 8 -10 11 -10 2 0 4 5 4 10 0 6 -5 10 -11 10 -5 0
-7 -4 -4 -10z"/>
<path d="M5915 15330 c-11 -18 5 -30 25 -18 10 7 16 16 14 20 -7 11 -32 10
-39 -2z"/>
<path d="M16585 15230 c-3 -4 3 -18 14 -31 l18 -23 8 23 c4 12 4 25 1 29 -10
10 -35 11 -41 2z"/>
<path d="M5790 15180 c0 -5 5 -10 10 -10 6 0 10 5 10 10 0 6 -4 10 -10 10 -5
0 -10 -4 -10 -10z"/>
<path d="M3355 15089 c-4 -6 -5 -13 -2 -16 7 -7 27 6 27 18 0 12 -17 12 -25
-2z"/>
<path d="M18990 15073 c0 -15 18 -35 23 -27 3 5 -1 15 -9 22 -8 7 -14 9 -14 5z"/>
<path d="M19120 15066 c0 -8 4 -26 10 -40 11 -29 2 -38 -41 -41 -37 -3 -79
-36 -73 -57 3 -11 -2 -18 -18 -20 -13 -2 -22 -9 -21 -15 1 -6 -11 -14 -27 -18
-16 -3 -32 -14 -35 -23 -3 -9 -21 -28 -41 -41 -19 -13 -39 -33 -45 -43 -5 -10
-16 -18 -23 -18 -8 0 -22 -8 -33 -17 -10 -10 -14 -16 -8 -13 6 3 2 -3 -8 -12
-11 -10 -23 -16 -27 -13 -4 3 -10 -2 -14 -10 -3 -8 -10 -15 -15 -15 -6 0 -47
-36 -91 -80 -44 -45 -80 -78 -80 -75 0 12 -61 -30 -76 -52 -8 -13 -19 -23 -24
-23 -6 0 -30 -20 -54 -44 -24 -24 -58 -49 -74 -57 -17 -7 -36 -23 -42 -34 -6
-12 -28 -30 -48 -41 -20 -10 -54 -35 -74 -54 -61 -58 -125 -110 -135 -110 -5
0 -24 -16 -43 -35 -19 -19 -39 -35 -44 -35 -6 0 -24 -13 -41 -28 -30 -27 -122
-101 -194 -154 -20 -15 -43 -25 -52 -22 -38 11 -19 -126 25 -175 7 -9 40 -67
71 -129 58 -112 58 -112 74 -88 15 23 68 70 155 136 74 56 176 143 176 149 0
4 20 22 45 39 26 18 44 36 41 41 -6 9 18 24 39 26 6 0 31 21 56 46 25 26 55
50 67 53 12 4 22 12 22 17 0 6 5 7 10 4 6 -3 14 5 20 20 6 17 26 32 56 45 27
12 48 28 51 40 3 11 14 22 24 25 10 4 19 11 19 16 0 5 7 9 15 9 8 0 23 9 32
20 10 11 24 20 32 20 8 0 12 3 8 6 -7 8 17 34 32 34 6 0 11 4 11 9 0 4 27 27
60 50 33 23 60 47 60 52 0 5 11 14 25 19 14 5 25 14 25 20 0 5 4 9 9 8 5 -2
10 2 12 7 1 6 21 19 43 30 39 19 63 36 91 63 8 6 19 12 25 12 7 0 9 8 5 21 -5
15 -4 19 4 15 6 -4 11 -2 11 4 0 6 8 10 18 8 10 -2 36 12 57 31 35 31 37 35
21 46 -11 8 -13 15 -7 20 6 3 11 1 11 -4 0 -7 6 -8 18 -2 9 5 29 14 44 21 15
7 30 21 33 30 3 9 21 23 40 30 43 17 56 52 32 89 -9 14 -33 57 -54 95 -73 133
-123 206 -141 206 -7 0 -10 5 -7 10 3 6 -1 10 -9 10 -9 0 -16 -6 -16 -14z
m-410 -550 c0 -3 -4 -8 -10 -11 -5 -3 -10 -1 -10 4 0 6 5 11 10 11 6 0 10 -2
10 -4z"/>
<path d="M16728 15045 c5 -30 32 -56 32 -31 0 9 -4 16 -10 16 -5 0 -10 6 -10
14 0 8 -4 17 -9 20 -4 3 -6 -6 -3 -19z"/>
<path d="M3482 15024 c-12 -8 -22 -21 -22 -28 0 -18 47 -26 61 -10 8 9 6 11
-10 7 -20 -5 -23 9 -8 35 11 16 6 15 -21 -4z"/>
<path d="M18957 15013 c-10 -9 -9 -23 1 -23 5 0 9 7 9 15 0 17 -1 18 -10 8z"/>
<path d="M3294 14982 c-10 -12 -35 -52 -54 -89 -19 -37 -38 -70 -41 -73 -9 -7
-79 -123 -79 -131 0 -3 14 -21 30 -39 17 -18 30 -28 30 -22 0 14 45 -4 75 -31
10 -9 25 -15 31 -13 16 6 22 -11 18 -51 -1 -18 2 -33 7 -33 5 0 9 6 9 14 0 10
7 12 22 8 16 -4 19 -2 13 8 -6 9 -4 11 4 6 7 -5 10 -14 7 -22 -3 -8 0 -11 9
-8 8 3 26 -6 40 -20 14 -14 34 -26 43 -26 9 0 40 -12 67 -25 28 -14 56 -25 63
-25 6 0 12 -7 12 -15 0 -8 14 -22 31 -30 16 -9 38 -24 49 -35 26 -26 104 -70
124 -70 22 0 72 -26 116 -60 19 -15 46 -31 60 -35 14 -4 34 -16 45 -26 29 -28
117 -85 143 -93 12 -4 22 -11 22 -15 0 -4 22 -17 49 -30 27 -12 51 -30 54 -40
3 -11 17 -22 35 -26 16 -3 37 -14 47 -24 9 -11 24 -17 34 -14 12 3 20 -2 24
-16 3 -14 28 -31 74 -52 37 -17 79 -43 93 -58 14 -16 39 -35 55 -44 17 -8 41
-27 54 -41 14 -14 32 -26 40 -26 18 0 50 46 71 100 7 19 21 44 31 55 24 28 99
172 99 190 0 9 -10 19 -23 24 -13 5 -36 20 -53 34 -16 13 -44 28 -62 32 -18 4
-36 13 -39 21 -6 17 -97 64 -124 64 -12 0 -23 10 -29 25 -7 19 -17 25 -38 25
-17 0 -38 10 -52 25 -13 14 -32 25 -42 25 -10 0 -30 11 -43 24 -14 14 -54 42
-91 62 -36 20 -68 43 -71 50 -3 8 -14 14 -25 14 -11 0 -36 16 -55 35 -25 25
-41 34 -54 30 -19 -6 -53 17 -42 29 4 3 0 6 -8 6 -8 0 -38 18 -68 40 -29 22
-58 40 -65 40 -7 0 -18 6 -25 13 -6 6 -22 12 -34 12 -12 0 -23 3 -24 8 -10 27
-53 54 -90 56 -7 1 -13 12 -13 26 0 20 -5 25 -24 25 -13 0 -29 7 -36 15 -7 8
-18 15 -25 15 -7 0 -15 7 -19 15 -3 8 -14 15 -25 15 -11 0 -25 9 -31 20 -6 11
-16 20 -23 20 -7 0 -18 14 -24 31 -11 27 -15 30 -28 19 -19 -16 -58 -1 -100
38 -31 29 -71 50 -60 32 3 -6 -1 -10 -9 -10 -9 0 -16 5 -16 11 0 6 -6 9 -12 6
-7 -2 -18 3 -24 11 -9 13 -13 12 -30 -6z m441 -552 c3 -5 3 -15 -1 -21 -6 -11
-23 6 -24 24 0 10 18 9 25 -3z"/>
<path d="M3440 14976 c0 -2 7 -9 15 -16 9 -7 15 -8 15 -2 0 5 -7 12 -15 16 -8
3 -15 4 -15 2z"/>
<path d="M5554 14922 c-6 -4 -16 -17 -22 -29 -7 -12 -25 -24 -42 -28 -21 -5
-30 -13 -30 -26 0 -10 4 -19 9 -19 5 0 17 -3 25 -6 12 -4 19 2 27 24 5 16 21
34 34 40 15 7 25 20 25 32 0 21 -8 25 -26 12z"/>
<path d="M5450 14770 c0 -5 5 -10 10 -10 6 0 10 5 10 10 0 6 -4 10 -10 10 -5
0 -10 -4 -10 -10z"/>
<path d="M16988 14764 c-9 -13 1 -54 13 -54 5 0 11 0 14 0 3 0 5 2 5 5 0 3 -3
4 -7 3 -4 -2 -10 11 -13 27 -3 17 -8 25 -12 19z"/>
<path d="M19363 14622 c-13 -28 -23 -54 -23 -60 0 -15 -41 -63 -49 -58 -8 5
-11 -10 -12 -51 -1 -13 -5 -23 -10 -23 -5 0 -8 -3 -8 -7 3 -21 -3 -31 -20 -36
-10 -2 -30 -29 -44 -60 -18 -36 -38 -61 -60 -75 -36 -21 -65 -45 -125 -103
-20 -20 -47 -42 -59 -48 -13 -7 -23 -18 -23 -25 0 -7 -18 -21 -40 -31 -22 -10
-40 -22 -40 -27 0 -4 -15 -17 -32 -28 -18 -11 -30 -20 -26 -20 4 0 -9 -16 -29
-35 -20 -19 -40 -35 -45 -35 -5 0 -7 -4 -4 -9 3 -5 -8 -14 -24 -20 -17 -5 -30
-15 -30 -21 0 -5 -20 -20 -44 -32 -24 -11 -49 -32 -55 -45 -6 -13 -25 -30 -41
-37 -17 -7 -27 -15 -23 -19 3 -4 -1 -7 -10 -7 -9 0 -23 -10 -31 -22 -9 -12
-16 -18 -16 -13 0 6 -3 6 -8 0 -4 -6 -22 -22 -41 -35 -19 -13 -62 -48 -94 -77
-33 -29 -65 -53 -71 -53 -6 0 -34 -20 -61 -43 -28 -24 -60 -49 -73 -56 -25
-13 -29 -16 -102 -80 -25 -21 -63 -47 -85 -58 -30 -14 -39 -24 -37 -38 9 -55
25 -98 43 -113 10 -9 19 -23 19 -32 0 -34 66 -197 89 -221 l26 -26 86 87 c48
48 96 91 107 94 12 4 31 19 44 34 13 15 44 42 69 59 25 18 53 43 62 56 9 14
33 35 54 48 21 13 62 48 91 77 28 30 52 50 52 46 0 -4 15 8 32 27 18 19 50 48
71 66 32 28 42 31 64 22 21 -8 29 -6 44 10 11 11 19 24 19 28 0 9 65 53 78 53
5 0 18 9 31 21 12 12 33 22 46 23 13 0 21 5 18 10 -4 5 6 6 22 2 26 -7 27 -6
14 10 -12 15 -10 20 21 45 19 16 40 27 47 24 7 -2 13 0 13 5 0 12 60 54 67 46
3 -3 6 -15 7 -27 2 -33 29 -46 60 -29 14 7 26 21 26 30 0 27 25 42 78 48 l47
5 -24 -22 c-13 -11 -27 -21 -31 -21 -4 0 -12 -11 -19 -24 -7 -13 -30 -34 -52
-47 -21 -13 -39 -27 -39 -30 0 -16 -62 -69 -99 -85 -23 -10 -41 -24 -41 -32 0
-7 -4 -11 -9 -7 -5 3 -12 -4 -16 -15 -3 -11 -15 -25 -26 -30 -10 -6 -19 -17
-19 -24 0 -7 -19 -26 -42 -42 -24 -15 -66 -51 -95 -79 -29 -29 -75 -67 -102
-86 -27 -19 -55 -44 -62 -56 -7 -12 -27 -27 -44 -33 -18 -6 -50 -30 -72 -53
-22 -23 -47 -49 -55 -57 -9 -8 -31 -30 -50 -48 -61 -62 -83 -82 -90 -82 -14 0
-98 -62 -108 -80 -5 -9 -28 -25 -50 -34 -22 -9 -43 -22 -46 -30 -7 -18 -79
-66 -99 -66 -20 0 -20 -79 0 -135 8 -22 15 -47 15 -55 0 -8 7 -28 16 -45 8
-16 26 -72 40 -123 25 -98 30 -112 43 -112 4 0 31 24 61 53 30 28 66 61 81 72
43 32 167 134 192 158 13 12 45 38 71 57 26 19 64 51 85 70 21 19 84 71 140
115 57 44 121 96 144 116 46 38 136 99 148 99 4 0 10 8 13 18 3 9 31 33 62 52
30 19 70 50 87 69 29 31 72 56 89 53 4 -1 10 7 13 18 8 27 83 76 119 78 23 2
26 0 17 -12 -7 -9 -8 -17 -3 -20 13 -8 23 20 16 39 -12 31 45 65 66 40 15 -18
-62 -95 -95 -95 -28 0 -53 -25 -33 -34 7 -3 2 -4 -12 -3 -16 1 -26 -4 -28 -15
-2 -13 3 -18 18 -18 12 0 19 4 16 9 -3 4 5 6 19 3 26 -5 94 36 77 47 -6 3 14
7 44 8 75 3 72 -18 -7 -56 -31 -14 -51 -32 -59 -51 -7 -16 -16 -27 -21 -24 -5
3 -9 1 -9 -5 0 -5 -8 -12 -18 -15 -10 -3 -57 -44 -104 -90 -47 -46 -95 -87
-106 -90 -10 -4 -24 -17 -30 -31 -6 -13 -29 -33 -51 -44 -22 -11 -48 -33 -59
-48 -11 -16 -46 -46 -78 -68 -31 -22 -93 -71 -137 -110 -94 -83 -191 -161
-267 -216 -70 -50 -130 -96 -172 -132 -126 -107 -153 -126 -212 -147 l-29 -11
7 -72 c4 -40 11 -90 17 -111 6 -22 14 -60 19 -85 18 -111 70 -263 70 -209 0 9
15 27 33 39 17 12 40 30 49 38 9 9 36 32 59 51 23 19 53 47 68 63 14 15 31 27
38 27 7 0 13 4 13 8 0 5 36 37 80 71 44 35 80 67 80 71 0 5 20 21 44 36 25 16
50 39 55 52 6 13 26 29 45 37 19 8 52 31 73 50 21 20 59 49 85 66 25 16 53 40
62 53 8 13 28 26 43 29 18 4 34 16 41 32 7 14 27 32 45 40 19 8 40 22 48 31
14 17 92 77 159 123 19 13 56 42 81 65 96 85 138 116 157 116 24 0 72 37 72
55 0 8 14 22 30 32 17 9 30 20 30 24 0 4 20 16 45 28 25 12 48 28 52 37 8 20
58 45 77 38 9 -3 16 -15 16 -27 0 -11 3 -17 7 -14 3 4 14 0 24 -9 10 -9 25
-14 34 -10 15 5 15 8 0 34 -11 18 -26 29 -43 30 -38 3 -60 42 -23 42 39 0 45
25 26 98 -23 86 -109 334 -129 370 -30 53 -56 121 -67 172 -15 73 -132 351
-228 548 -17 34 -31 66 -31 70 0 13 -164 323 -193 366 -15 21 -27 44 -27 50 0
6 -10 24 -23 39 l-22 28 -22 -49z m-39 -786 c-3 -9 -12 -12 -22 -9 -15 6 -9
11 25 22 1 1 0 -5 -3 -13z m-104 -60 c0 -3 -4 -8 -10 -11 -5 -3 -10 -1 -10 4
0 6 5 11 10 11 6 0 10 -2 10 -4z m517 -485 c10 9 17 9 21 2 4 -5 12 -12 19
-14 8 -3 9 -9 3 -19 -8 -13 -13 -13 -38 2 -16 10 -32 14 -36 11 -4 -4 -4 1 0
12 5 12 9 14 12 7 3 -10 7 -10 19 -1z m-70 -23 c-3 -8 -6 -5 -6 6 -1 11 2 17
5 13 3 -3 4 -12 1 -19z"/>
<path d="M17055 14639 c-4 -5 -1 -18 7 -27 8 -9 20 -29 28 -44 7 -16 18 -28
24 -28 6 0 5 5 -2 12 -9 9 -8 14 4 23 14 10 12 15 -12 43 -30 34 -39 38 -49
21z"/>
<path d="M3067 14592 c-10 -10 -17 -26 -17 -34 0 -9 -7 -21 -15 -28 -36 -30
-162 -275 -233 -455 -22 -55 -68 -161 -102 -235 -59 -128 -129 -303 -152 -380
-5 -19 -23 -62 -38 -95 -15 -33 -51 -132 -79 -220 -27 -88 -64 -203 -81 -255
-17 -52 -47 -151 -65 -220 -19 -69 -41 -147 -50 -175 -8 -27 -19 -86 -26 -130
-6 -44 -21 -112 -35 -152 -27 -82 -84 -358 -84 -408 0 -31 20 -61 33 -49 3 3
8 -4 12 -15 6 -20 16 -25 42 -22 7 1 23 -7 35 -19 12 -11 30 -20 40 -20 10 0
18 -6 18 -12 1 -20 40 -43 107 -63 44 -13 64 -25 72 -42 6 -12 19 -23 28 -23
26 0 68 -25 66 -38 -1 -6 10 -13 25 -17 15 -3 51 -23 80 -45 29 -22 57 -40 63
-40 14 0 255 -135 280 -158 25 -23 87 -60 110 -67 13 -4 32 -15 43 -24 10 -9
35 -25 56 -36 47 -25 86 -49 163 -100 72 -48 117 -76 177 -110 25 -14 80 -49
122 -78 165 -112 266 -173 274 -164 7 7 25 244 27 351 2 69 -1 91 -13 98 -8 5
-51 29 -95 55 -44 25 -91 53 -105 63 -14 9 -54 33 -90 52 -36 19 -85 49 -110
66 -40 27 -77 48 -175 101 -56 31 -187 116 -227 149 -22 17 -46 32 -53 32 -7
0 -34 16 -59 35 -25 19 -63 44 -86 55 -50 25 -170 111 -170 121 0 4 -11 10
-25 13 -13 3 -52 30 -87 59 -35 28 -65 51 -68 50 -10 -5 -45 10 -55 24 -6 8
-22 20 -35 27 -14 6 -24 20 -24 29 1 13 -2 14 -16 7 -20 -11 -50 -4 -50 11 0
5 -6 9 -14 9 -7 0 -19 6 -25 14 -9 11 -8 15 4 20 9 3 13 2 10 -4 -3 -6 -1 -10
5 -10 6 0 9 12 8 26 -2 16 2 28 10 30 7 1 8 0 2 -3 -22 -11 -9 -22 16 -13 32
12 37 12 29 1 -3 -5 -2 -12 3 -15 4 -2 8 6 8 18 0 13 -5 23 -10 23 -33 0 -45
5 -51 24 -6 19 -8 19 -24 5 -10 -9 -21 -13 -24 -9 -10 10 -8 25 2 19 5 -3 12
1 15 10 3 8 2 13 -3 10 -5 -3 -14 0 -20 7 -8 11 -4 13 22 10 22 -3 28 -2 18 5
-10 7 -10 11 -1 17 17 10 25 -4 29 -50 1 -5 5 -3 11 5 5 8 11 12 12 10 2 -3
12 -18 22 -33 12 -19 24 -27 39 -25 12 2 22 -3 23 -9 3 -25 6 -28 12 -12 6 14
12 15 42 5 24 -8 34 -17 32 -29 -2 -10 4 -18 13 -18 8 -1 18 -2 23 -3 4 -1 21
-6 38 -10 18 -4 40 -16 50 -27 9 -10 35 -24 57 -30 21 -6 49 -21 62 -35 12
-13 30 -24 39 -24 23 0 54 -17 94 -51 18 -16 39 -29 46 -29 8 0 36 -15 63 -34
27 -19 72 -46 99 -61 112 -61 163 -91 180 -107 17 -14 87 -59 253 -160 29 -18
64 -40 77 -48 13 -8 67 -42 119 -75 53 -33 102 -70 111 -82 8 -13 23 -23 34
-23 23 0 36 39 51 155 5 44 15 98 20 119 6 21 10 73 10 115 -1 120 -3 143 -15
131 -17 -17 -59 -11 -95 13 -19 12 -46 30 -60 39 -14 9 -47 24 -72 33 -28 9
-51 25 -59 40 -9 16 -28 29 -54 36 -72 18 -75 20 -81 40 -4 10 -11 19 -16 19
-22 0 -146 66 -179 96 -20 18 -48 36 -62 39 -14 4 -36 18 -49 31 -12 13 -28
24 -35 24 -6 0 -29 14 -50 30 -56 44 -142 100 -154 100 -5 0 -10 4 -10 10 0 5
-19 18 -42 28 -24 10 -49 26 -57 35 -7 10 -19 17 -26 17 -7 0 -29 14 -50 30
-21 17 -43 30 -50 30 -6 0 -19 8 -28 18 -14 15 -14 21 -4 34 18 23 40 27 53
10 10 -14 13 -13 22 4 10 19 7 20 -41 19 -29 -1 -57 3 -64 7 -6 5 -14 5 -18
-2 -10 -16 -29 -12 -53 11 -38 35 -19 42 60 23 37 -8 66 2 50 18 -7 7 -12 20
-12 30 0 35 70 15 133 -38 16 -13 36 -24 45 -24 9 0 37 -14 61 -30 24 -17 49
-30 55 -30 6 0 17 -9 24 -20 7 -11 21 -20 33 -20 28 0 79 -28 79 -43 0 -12 84
-57 106 -57 6 0 21 -11 34 -25 13 -14 53 -39 89 -56 36 -17 80 -43 96 -58 17
-16 62 -45 100 -66 39 -21 81 -46 95 -55 85 -59 169 -110 179 -110 6 0 11 -4
11 -9 0 -5 10 -12 23 -15 22 -6 60 -32 105 -75 24 -23 26 -23 39 -5 7 10 18
37 24 59 6 22 19 69 30 105 49 166 57 221 40 249 -18 28 -276 171 -309 171 -6
0 -20 12 -31 26 -11 14 -53 43 -93 63 -119 61 -191 102 -218 122 -46 36 -154
105 -223 143 -38 21 -83 50 -100 65 -18 15 -45 32 -60 39 -16 7 -31 21 -34 32
-3 12 -18 23 -37 28 -27 8 -31 13 -30 40 2 24 -2 29 -15 25 -13 -5 -14 -3 -4
7 10 11 18 11 38 2 20 -9 25 -9 19 0 -5 7 -2 9 8 6 8 -4 15 0 15 8 0 7 -7 16
-14 18 -8 3 -11 11 -7 17 5 8 2 9 -11 2 -26 -15 -75 15 -75 45 0 28 30 30 55
2 10 -11 24 -20 31 -20 7 0 25 -11 40 -25 15 -14 45 -30 68 -36 70 -19 115
-41 130 -64 9 -14 29 -25 54 -29 22 -3 45 -13 53 -22 7 -9 23 -20 36 -25 13
-5 23 -16 23 -24 0 -9 4 -14 8 -11 5 3 44 -15 87 -39 43 -25 81 -45 84 -45 3
0 30 -18 59 -40 29 -22 55 -40 58 -40 4 0 51 -29 105 -65 55 -36 108 -65 119
-65 10 0 22 -5 25 -10 4 -6 10 -8 15 -5 5 3 17 -6 28 -20 11 -14 29 -25 41
-25 11 0 41 -20 67 -44 25 -25 51 -43 58 -40 13 5 66 140 101 259 14 44 29 88
35 97 17 29 12 58 -9 58 -10 0 -41 15 -67 33 -53 36 -201 118 -278 154 -34 16
-46 27 -42 38 4 10 -1 15 -15 15 -23 0 -101 43 -120 67 -7 8 -36 25 -64 38
-27 12 -68 41 -90 64 -21 22 -45 41 -51 41 -7 0 -29 17 -49 38 -30 31 -35 42
-30 69 5 28 1 38 -29 68 -20 19 -40 35 -46 35 -5 0 -9 3 -9 8 4 22 -4 31 -28
34 -16 2 -28 8 -28 15 0 6 -3 15 -7 19 -18 17 -5 22 55 20 64 -2 104 -18 154
-60 36 -31 158 -96 178 -96 8 0 19 -9 25 -19 5 -11 20 -23 32 -27 35 -10 89
-50 81 -58 -4 -4 -1 -5 7 -1 8 3 31 -8 50 -25 19 -16 50 -35 68 -41 17 -6 32
-14 32 -19 0 -9 124 -90 138 -90 5 0 14 -11 20 -24 6 -14 23 -27 40 -30 16 -4
52 -25 81 -46 74 -56 107 -53 126 10 4 14 22 57 40 95 57 121 85 187 85 200 0
20 -50 75 -67 75 -9 0 -43 17 -77 39 -34 21 -94 55 -133 75 -39 19 -74 40 -78
46 -3 6 -25 20 -48 31 -23 12 -44 25 -47 29 -3 4 -18 15 -35 24 -16 9 -48 28
-70 41 -22 13 -54 31 -72 39 -17 9 -33 19 -35 23 -5 12 -85 53 -102 53 -9 0
-16 6 -16 13 0 13 -23 30 -85 63 -22 11 -71 37 -109 57 -38 20 -74 46 -80 58
-6 12 -29 27 -51 35 -22 7 -41 18 -43 24 -2 5 -14 10 -27 10 -13 0 -28 6 -32
14 -4 8 -25 24 -46 36 -28 17 -37 28 -34 41 3 11 1 19 -4 19 -4 0 -6 7 -3 15
5 11 2 13 -10 9 -11 -4 -15 -13 -10 -26 5 -16 2 -19 -17 -16 -12 2 -27 12 -33
23 -6 11 -18 24 -26 29 -30 19 -140 137 -140 150 0 7 -7 19 -15 26 -11 9 -14
22 -10 40 8 37 -16 57 -38 32z m380 -868 c2 -6 -6 -11 -18 -10 -12 0 -24 7
-27 14 -3 9 3 13 19 10 12 -1 24 -8 26 -14z m-52 -114 c-3 -5 -11 -10 -16 -10
-6 0 -7 5 -4 10 3 6 11 10 16 10 6 0 7 -4 4 -10z m115 -80 c13 -18 26 -27 35
-23 9 3 15 -1 15 -11 0 -21 -12 -20 -57 6 -42 24 -54 38 -47 50 10 16 33 7 54
-22z m-490 -260 c0 -5 -7 -10 -16 -10 -8 0 -12 5 -9 10 3 6 10 10 16 10 5 0 9
-4 9 -10z m-327 -506 c9 -9 -4 -34 -18 -34 -8 0 -11 8 -8 20 5 20 15 25 26 14z
m-94 -23 c7 -5 12 -14 9 -21 -2 -7 -10 -4 -22 9 -19 21 -12 28 13 12z m181
-38 c0 -2 -9 -3 -20 -3 -13 0 -20 7 -20 20 0 19 1 19 20 3 11 -10 20 -19 20
-20z m-540 -457 c0 -2 -7 -7 -16 -10 -8 -3 -12 -2 -9 4 6 10 25 14 25 6z m113
-110 c4 -10 1 -13 -8 -9 -8 3 -12 9 -9 14 7 12 11 11 17 -5z"/>
<path d="M17172 14537 c-24 -25 -28 -37 -12 -37 11 0 45 48 38 55 -2 3 -14 -5
-26 -18z"/>
<path d="M3155 14530 c3 -5 8 -10 11 -10 2 0 4 5 4 10 0 6 -5 10 -11 10 -5 0
-7 -4 -4 -10z"/>
<path d="M3196 14507 c3 -10 9 -15 12 -12 3 3 0 11 -7 18 -10 9 -11 8 -5 -6z"/>
<path d="M19235 14480 c-3 -5 -1 -10 4 -10 6 0 11 5 11 10 0 6 -2 10 -4 10 -3
0 -8 -4 -11 -10z"/>
<path d="M5202 14450 c-23 -22 -27 -32 -15 -44 4 -3 17 6 30 20 37 44 26 62
-15 24z"/>
<path d="M5140 14350 c0 -5 5 -10 11 -10 5 0 7 5 4 10 -3 6 -8 10 -11 10 -2 0
-4 -4 -4 -10z"/>
<path d="M17323 14293 c-18 -7 -16 -30 3 -37 21 -8 22 -6 15 20 -3 11 -12 19
-18 17z"/>
<path d="M9086 14275 c-3 -9 1 -23 9 -31 8 -9 15 -20 15 -26 0 -5 13 -22 28
-36 16 -15 37 -45 47 -67 10 -22 32 -59 48 -83 l29 -43 -44 22 c-23 12 -61 38
-84 58 -23 20 -60 53 -84 73 -23 21 -60 48 -81 60 -21 12 -39 28 -39 35 0 7
-7 13 -15 13 -8 0 -15 -9 -15 -20 0 -11 5 -20 11 -20 5 0 7 -5 4 -10 -4 -6 0
-22 9 -35 9 -13 16 -31 16 -38 0 -8 11 -26 25 -41 14 -15 25 -32 25 -39 1 -7
9 -30 20 -52 11 -22 19 -44 20 -49 0 -5 8 -18 18 -29 9 -11 -3 -6 -28 12 -25
18 -45 36 -45 41 0 10 -62 57 -87 66 -10 4 -18 11 -18 16 0 17 -55 57 -71 52
-12 -3 -18 4 -22 25 -5 22 -17 34 -51 50 -42 21 -78 51 -60 51 4 0 3 5 -4 12
-8 8 -15 8 -25 0 -8 -7 -17 -9 -20 -5 -4 3 -7 1 -7 -5 0 -7 9 -21 20 -32 11
-11 22 -32 26 -47 4 -16 20 -47 35 -70 16 -24 24 -43 19 -43 -5 0 2 -12 15
-26 26 -28 32 -44 15 -44 -5 0 -10 5 -10 10 0 6 -11 15 -25 20 -14 5 -46 29
-72 52 -25 24 -54 51 -64 61 -11 9 -23 17 -27 17 -4 0 -23 16 -42 35 -19 20
-40 33 -46 31 -7 -3 -20 4 -30 15 -9 10 -13 19 -8 19 13 0 -19 20 -33 20 -29
0 26 -128 64 -153 7 -4 23 -27 34 -50 12 -23 25 -44 29 -47 13 -10 58 -95 70
-135 7 -22 19 -48 27 -57 9 -10 13 -24 10 -32 -3 -8 -1 -16 4 -18 6 -2 24 -61
40 -131 21 -88 35 -127 45 -127 7 0 16 -12 20 -27 3 -16 12 -50 19 -78 7 -27
18 -69 24 -92 6 -23 11 -45 10 -50 -4 -21 2 -33 16 -33 8 0 18 -12 21 -27 28
-116 76 -298 83 -311 4 -10 11 -42 15 -72 37 -305 48 -431 48 -565 -1 -136 -7
-232 -21 -310 -6 -33 -15 -91 -22 -130 -6 -38 -17 -84 -25 -102 -8 -17 -14
-37 -14 -45 0 -8 -4 -18 -9 -24 -5 -5 -18 -40 -27 -79 -10 -38 -26 -82 -36
-96 -19 -29 -48 -106 -48 -131 0 -9 -33 -59 -73 -110 -40 -51 -87 -113 -104
-138 -18 -25 -66 -83 -107 -129 -42 -46 -76 -86 -76 -90 0 -3 -27 -29 -61 -56
-96 -79 -150 -128 -146 -131 7 -7 630 -16 1572 -23 523 -4 1139 -10 1370 -14
796 -12 2220 -20 2276 -13 l55 7 2 132 c2 150 -6 250 -19 242 -7 -5 -131 92
-219 171 -105 95 -128 114 -138 114 -5 0 -25 17 -43 38 -18 20 -45 45 -60 54
-47 29 -353 289 -365 310 -6 11 -29 28 -51 38 -23 10 -44 28 -48 39 -4 13 -18
24 -35 28 -16 3 -36 16 -45 29 -8 13 -30 34 -49 47 -18 12 -77 56 -130 97 -54
41 -112 85 -129 97 -18 12 -45 33 -62 48 -16 15 -51 41 -76 58 -26 18 -78 57
-115 88 -38 30 -82 64 -99 74 -16 11 -49 35 -71 55 -23 19 -81 67 -129 105
-49 39 -101 82 -117 98 -16 15 -32 27 -35 27 -3 0 -22 15 -43 33 -20 17 -51
40 -69 50 -18 9 -35 26 -38 37 -3 12 -14 20 -25 20 -11 0 -32 12 -46 28 -35
36 -121 98 -148 106 -12 4 -24 15 -27 26 -3 10 -21 26 -42 34 -20 9 -39 24
-42 35 -2 10 -26 29 -51 42 -26 13 -51 34 -57 47 -5 12 -15 22 -21 22 -15 0
-95 66 -88 72 2 3 -9 11 -25 18 -17 7 -36 18 -42 26 -6 8 -20 14 -30 14 -11 0
-30 17 -44 39 -16 24 -36 41 -53 44 -16 3 -34 18 -45 37 -11 17 -25 29 -35 28
-9 -2 -21 7 -27 19 -19 37 -46 62 -102 94 -29 17 -53 36 -53 43 0 8 -19 26
-42 41 -23 15 -52 41 -66 57 -25 29 -126 103 -175 128 -15 7 -26 20 -25 28 2
9 -8 18 -26 23 -15 4 -36 14 -45 22 -9 8 -29 18 -46 22 -16 4 -24 10 -17 12
14 5 16 23 3 23 -6 0 -22 11 -37 25 -15 14 -36 25 -48 25 -12 0 -25 9 -31 23
-6 12 -25 30 -44 39 -19 9 -37 21 -40 26 -3 5 -14 11 -24 13 -10 2 -18 9 -18
14 -1 16 -21 36 -46 46 -12 4 -25 20 -29 34 -4 14 -13 25 -23 25 -10 0 -28 11
-40 24 -14 15 -30 22 -42 19 -13 -4 -21 1 -27 18 -6 14 -11 18 -16 11 -4 -6
-1 -22 6 -34 7 -13 11 -26 10 -30 -1 -5 4 -8 12 -8 8 0 18 -10 21 -22 12 -43
60 -153 67 -156 5 -2 6 -8 2 -13 -3 -5 -20 6 -38 23 -18 18 -56 51 -85 73 -30
22 -68 54 -85 71 -39 38 -98 74 -122 74 -15 0 -16 2 -5 9 15 9 7 31 -11 31 -7
0 -22 9 -34 21 -19 18 -22 18 -28 4z"/>
<path d="M17346 14189 c9 -10 21 -16 25 -13 11 7 -11 31 -28 31 -9 0 -9 -5 3
-18z"/>
<path d="M17434 14182 c-6 -4 -14 -16 -17 -27 -6 -17 -5 -18 6 -5 7 8 19 21
27 28 15 13 2 17 -16 4z"/>
<path d="M19136 13664 c-3 -8 -1 -24 4 -34 8 -16 7 -18 -4 -14 -18 7 -27 -8
-15 -26 7 -13 9 -12 9 3 0 9 3 16 8 15 10 -2 62 24 62 31 0 4 -13 14 -29 24
-26 15 -30 15 -35 1z"/>
<path d="M4672 13590 c-10 -17 -10 -20 6 -20 19 0 42 18 42 32 0 16 -36 7 -48
-12z"/>
<path d="M3179 13096 c10 -11 7 -17 -10 -30 -13 -8 -20 -18 -17 -22 4 -3 16 4
28 16 11 11 25 18 30 15 15 -9 12 5 -4 21 -20 19 -43 19 -27 0z"/>
<path d="M19385 13052 c-11 -2 -25 -11 -32 -19 -22 -28 33 -64 67 -43 22 14
-8 68 -35 62z"/>
<path d="M4400 13040 c0 -12 35 -31 44 -23 15 15 4 33 -19 33 -14 0 -25 -4
-25 -10z"/>
<path d="M3365 12951 c-3 -5 -1 -12 5 -16 5 -3 10 1 10 9 0 18 -6 21 -15 7z"/>
<path d="M19999 12804 c-1 -2 -3 -8 -4 -14 -1 -5 -4 -13 -5 -17 -1 -5 -2 -11
-1 -15 0 -5 -3 -8 -9 -8 -5 0 -10 -4 -10 -9 0 -5 17 0 37 10 44 23 54 53 18
55 -14 1 -26 0 -26 -2z"/>
<path d="M20078 12725 c-36 -30 -69 -55 -73 -55 -10 0 -35 -27 -35 -39 0 -12
-43 -43 -56 -40 -21 4 -35 -2 -29 -11 11 -18 -122 -137 -189 -170 -17 -8 -33
-24 -34 -35 -4 -20 -24 -38 -149 -132 -35 -26 -63 -52 -63 -59 0 -7 -15 -21
-32 -33 -53 -33 -110 -77 -158 -120 -119 -106 -158 -139 -190 -161 -19 -13
-46 -35 -60 -47 -53 -50 -116 -101 -146 -119 -17 -11 -49 -34 -70 -52 -34 -30
-119 -96 -304 -237 -76 -59 -82 -83 -55 -242 22 -134 44 -489 48 -768 3 -137
7 -257 11 -266 4 -8 21 -21 39 -27 18 -7 62 -31 98 -55 35 -24 79 -51 97 -60
17 -9 45 -24 60 -32 16 -8 37 -24 47 -35 10 -11 24 -20 31 -20 19 0 117 -53
134 -72 8 -9 50 -35 92 -57 43 -22 91 -49 107 -60 16 -12 33 -21 38 -21 4 0
24 -15 44 -33 20 -18 51 -39 69 -47 18 -7 40 -21 49 -30 9 -9 48 -34 86 -55
39 -20 75 -42 80 -49 6 -6 26 -19 45 -29 61 -31 81 -44 101 -66 11 -11 27 -21
36 -21 8 0 31 -13 50 -30 18 -16 40 -30 47 -30 7 0 21 -9 31 -20 10 -11 29
-20 42 -20 12 0 33 -10 45 -22 13 -13 45 -38 73 -57 27 -18 55 -39 60 -45 6
-7 37 -24 70 -40 33 -15 71 -38 85 -51 14 -13 50 -37 80 -53 30 -16 54 -34 53
-40 -1 -5 5 -16 14 -24 14 -11 16 -11 8 2 -5 9 0 8 14 -4 39 -35 47 -8 76 260
64 582 76 1451 25 1779 -5 33 -14 110 -20 170 -16 163 -49 424 -60 475 -6 25
-15 79 -20 120 -37 269 -106 587 -192 885 -36 124 -47 150 -63 153 -12 2 -46
-19 -87 -53z"/>
<path d="M2960 12535 c-8 -9 -8 -15 -2 -15 12 0 26 19 19 26 -2 2 -10 -2 -17
-11z"/>
<path d="M16732 11797 c-43 -13 -128 -90 -151 -136 -38 -73 -35 -232 3 -266 6
-5 28 -31 49 -56 43 -53 106 -79 193 -79 192 0 307 171 248 371 -19 66 -99
148 -162 167 -47 14 -134 14 -180 -1z m169 -62 c52 -19 75 -39 100 -87 24 -48
26 -169 3 -224 -16 -40 -59 -83 -82 -84 -7 0 -11 -4 -7 -9 10 -17 -64 -33
-118 -27 -45 6 -100 25 -73 26 5 0 -9 13 -31 29 -76 55 -99 175 -54 278 42 95
152 136 262 98z m148 -205 c0 -30 -4 -62 -9 -70 -7 -10 -10 13 -9 75 0 59 3
83 9 70 5 -11 9 -45 9 -75z"/>
<path d="M16720 11673 c-12 -14 -15 -49 -15 -153 0 -130 1 -135 21 -138 25 -4
42 34 38 81 -2 15 2 27 7 27 6 0 7 5 4 10 -3 6 0 10 7 10 14 0 58 -59 58 -79
0 -7 4 -10 9 -7 4 3 13 -6 19 -19 8 -17 20 -25 37 -25 26 0 46 27 29 39 -6 3
-20 23 -32 44 -24 42 -17 67 25 86 17 8 23 18 22 38 -2 24 -2 25 -6 6 -7 -35
-18 -27 -20 13 -3 56 -14 61 -133 64 -46 1 -59 4 -45 10 14 6 15 9 5 9 -9 1
-22 -7 -30 -16z m156 -56 c4 -4 2 -17 -4 -29 l-11 -23 -2 25 c-1 23 -2 23 -8
-5 -5 -27 -10 -30 -50 -33 -43 -3 -43 -3 -37 25 5 21 4 24 -4 13 -8 -12 -10
-9 -10 14 l0 28 60 -4 c33 -2 63 -7 66 -11z"/>
<path d="M16828 11683 c6 -2 18 -2 25 0 6 3 1 5 -13 5 -14 0 -19 -2 -12 -5z"/>
<path d="M2074 11614 c4 -10 -1 -25 -10 -35 -18 -20 -31 -97 -59 -344 -8 -71
-17 -148 -20 -170 -2 -22 -9 -116 -15 -210 -6 -93 -13 -185 -16 -203 -3 -18
-5 -185 -5 -370 0 -709 59 -1277 207 -2017 24 -121 50 -245 58 -275 29 -115
47 -172 60 -198 l14 -27 7 38 c4 21 13 37 21 37 7 0 24 14 36 31 16 22 28 29
44 25 16 -4 20 -1 20 15 -1 12 10 27 28 37 16 9 40 27 54 40 14 12 47 39 74
59 26 20 50 45 53 54 3 9 21 24 40 33 19 9 42 27 52 40 10 12 30 29 43 36 14
7 39 28 55 46 17 19 35 34 41 34 6 0 23 14 37 30 15 16 31 30 35 30 4 0 35 27
67 60 33 33 65 60 70 60 6 0 23 10 39 23 72 56 158 128 212 175 32 29 91 76
131 104 39 29 97 73 129 98 31 25 67 52 79 60 31 21 122 93 174 137 24 21 62
51 85 66 98 67 105 86 81 227 -8 52 -20 124 -25 160 -14 102 -30 463 -30 686
l0 203 -32 24 c-18 14 -58 37 -88 52 -30 15 -71 40 -90 55 -19 15 -45 31 -58
34 -12 4 -43 23 -68 42 -25 19 -57 40 -72 45 -14 5 -79 42 -145 82 -65 40
-144 87 -175 105 -31 19 -64 40 -72 47 -9 8 -38 26 -64 40 -27 14 -65 39 -85
56 -19 16 -40 29 -45 29 -4 0 -36 20 -70 43 -33 24 -109 72 -168 106 -115 66
-227 141 -248 166 -7 8 -20 15 -30 15 -22 0 -127 70 -157 104 -13 14 -29 26
-36 26 -7 0 -44 22 -82 48 -61 42 -70 52 -67 75 2 16 -1 27 -8 27 -7 0 -9 -7
-6 -16z"/>
<path d="M2211 11604 c0 -11 3 -14 6 -6 3 7 2 16 -1 19 -3 4 -6 -2 -5 -13z"/>
<path d="M2370 11517 c0 -2 14 -16 30 -32 36 -35 40 -29 5 9 -21 23 -35 32
-35 23z"/>
<path d="M2470 11460 c-9 -6 -10 -10 -3 -10 6 0 15 5 18 10 8 12 4 12 -15 0z"/>
<path d="M16762 11065 c-29 -7 -64 -20 -78 -30 -29 -19 -54 -71 -54 -112 0
-34 34 -93 53 -93 8 0 22 -10 33 -21 10 -12 44 -33 74 -46 30 -14 83 -43 117
-66 51 -33 63 -46 63 -68 0 -21 -8 -30 -39 -44 -40 -17 -75 -16 -134 7 -29 11
-70 72 -81 119 -4 20 -14 28 -38 33 -17 3 -36 2 -40 -2 -5 -5 -7 -58 -6 -118
l3 -109 38 -3 c33 -3 38 0 48 25 l10 28 17 -22 c19 -24 78 -43 136 -43 55 0
161 31 144 41 -10 7 -9 9 4 9 9 0 26 12 38 28 19 23 21 37 18 91 -4 62 -6 66
-49 104 -24 21 -73 52 -109 68 -69 32 -179 99 -180 111 0 11 61 68 73 68 67 0
143 -62 149 -120 3 -34 4 -35 51 -38 l47 -3 0 90 c0 93 -6 125 -21 115 -22
-13 -105 -13 -152 1 -58 17 -64 17 -135 0z"/>
<path d="M14952 11047 c-11 -12 -8 -18 15 -35 l28 -20 3 -201 3 -200 -26 -7
c-22 -5 -26 -11 -23 -38 l3 -31 143 -3 142 -3 0 36 c0 32 -2 35 -29 35 -37 0
-38 2 -45 77 -7 75 6 93 67 93 69 1 175 26 198 46 47 42 60 101 38 173 -8 27
-22 43 -52 61 -40 23 -53 24 -247 28 -175 4 -207 2 -218 -11z m299 -48 c48
-16 59 -35 59 -96 0 -52 -1 -55 -35 -69 -46 -19 -101 -18 -109 2 -8 20 -8 93
0 132 5 27 15 35 45 41 3 0 21 -4 40 -10z"/>
<path d="M15516 11052 c-12 -20 7 -52 30 -52 23 0 24 -3 25 -62 0 -35 1 -126
2 -202 l2 -139 -30 -10 c-39 -13 -38 -11 -30 -46 l7 -31 236 2 237 3 3 99 c2
87 1 98 -14 92 -22 -8 -40 4 -23 15 10 6 8 9 -8 9 -24 0 -43 -42 -43 -96 0
-18 -3 -35 -7 -37 -5 -3 -43 -8 -85 -12 l-78 -7 0 188 c0 104 3 198 6 210 3
12 20 27 37 35 42 19 44 35 6 43 -46 9 -267 7 -273 -2z"/>
<path d="M16020 11039 c0 -12 8 -23 20 -26 11 -3 20 -10 20 -15 0 -5 4 -7 9
-4 17 11 21 -26 21 -187 1 -246 14 -277 124 -296 84 -15 133 -14 190 3 96 29
127 96 116 256 -3 41 -3 105 0 143 5 59 9 70 34 92 24 21 27 27 16 40 -9 11
-35 15 -106 15 -93 0 -94 0 -94 -25 0 -13 8 -28 18 -34 14 -8 18 -28 22 -113
l5 -103 6 95 c4 70 5 44 6 -95 0 -104 -3 -172 -6 -150 -5 30 -8 36 -14 22 -4
-10 -7 -29 -7 -42 0 -29 -5 -32 -57 -41 -34 -5 -45 -2 -62 15 -20 20 -21 31
-21 210 0 181 1 191 21 205 12 8 19 22 17 33 -3 16 -16 18 -141 21 -134 3
-137 2 -137 -19z"/>
<path d="M16412 10735 c0 -16 2 -22 5 -12 2 9 2 23 0 30 -3 6 -5 -1 -5 -18z"/>
<path d="M7530 10319 c-62 -10 -113 -29 -105 -37 3 -3 -22 -16 -55 -29 -67
-25 -181 -118 -207 -168 -9 -16 -25 -40 -37 -52 -12 -12 -32 -48 -46 -80 -13
-32 -29 -63 -36 -70 -30 -31 -74 -317 -74 -486 0 -328 76 -565 233 -727 72
-73 87 -84 190 -140 122 -66 407 -72 524 -12 18 10 58 30 89 46 31 16 58 36
61 45 2 9 19 26 38 39 19 12 41 37 49 56 8 19 22 38 31 43 9 5 31 49 49 96 18
48 36 84 39 80 4 -3 7 3 7 14 0 11 7 37 15 56 9 22 11 38 5 42 -5 3 -7 11 -4
18 4 11 -74 38 -210 74 -13 4 -15 7 -7 13 13 7 -32 20 -72 20 -20 0 -20 -1 -2
-13 17 -13 17 -14 -4 -20 -14 -3 -21 -13 -21 -30 0 -34 -50 -168 -60 -162 -5
3 -11 -3 -14 -12 -11 -34 -53 -73 -107 -98 -30 -13 -60 -25 -66 -25 -7 0 -13
-4 -13 -10 0 -14 -101 -12 -130 3 -14 7 -45 20 -70 30 -54 20 -139 105 -162
162 -9 22 -22 62 -28 90 -6 27 -16 55 -21 61 -14 16 -29 161 -29 274 0 113 21
305 31 289 4 -7 12 6 19 32 46 170 143 260 311 292 46 8 65 8 80 -1 10 -7 26
-12 35 -12 27 0 122 -62 133 -87 6 -13 18 -26 27 -30 20 -8 64 -107 64 -146 0
-30 0 -30 47 -23 25 3 54 13 63 21 9 8 20 12 23 9 4 -4 12 -2 19 3 7 6 48 19
91 28 72 16 77 19 77 43 0 14 -9 45 -20 69 -11 24 -29 64 -41 91 -35 79 -42
92 -51 92 -4 0 -19 18 -33 40 -14 22 -31 40 -39 40 -7 0 -25 15 -39 33 -15 20
-45 41 -71 51 -25 10 -46 23 -46 30 0 36 -299 68 -430 45z"/>
<path d="M9074 10316 c-89 -18 -200 -79 -275 -151 -91 -87 -121 -124 -143
-172 -11 -24 -22 -43 -27 -43 -4 0 -5 -9 -2 -20 4 -13 0 -20 -9 -20 -40 0
-125 -522 -100 -608 6 -20 14 -68 17 -107 4 -38 10 -83 15 -100 5 -16 16 -64
25 -105 9 -41 24 -84 34 -95 10 -11 28 -45 41 -76 31 -78 183 -234 257 -265
18 -8 33 -18 33 -22 0 -8 63 -29 130 -43 152 -33 348 -9 460 57 14 8 39 22 57
31 17 9 36 26 41 38 6 13 25 31 41 41 17 10 34 27 37 39 4 11 15 31 25 44 11
13 19 31 19 40 0 9 9 22 19 28 12 7 28 41 41 85 12 40 28 86 36 101 27 55 13
71 -94 102 -53 16 -108 37 -122 46 -14 10 -36 19 -49 21 -21 3 -25 -3 -41 -68
-10 -39 -29 -86 -42 -105 -12 -19 -31 -53 -41 -75 -13 -29 -33 -50 -71 -72
-28 -18 -59 -32 -67 -32 -8 0 -24 -7 -35 -15 -52 -39 -213 8 -291 86 -37 37
-94 125 -93 144 0 3 -6 18 -13 33 -29 55 -42 166 -42 352 0 121 5 208 14 250
20 96 76 207 130 262 47 47 127 90 169 90 12 0 22 5 22 10 0 20 115 -2 177
-33 80 -40 155 -130 176 -209 l14 -55 38 3 c42 4 83 20 55 22 -14 2 34 13 167
40 l51 11 -38 113 c-39 117 -84 190 -167 267 -59 55 -187 120 -268 135 -87 16
-230 16 -311 0z"/>
<path d="M5910 10300 c-8 -5 -12 -10 -7 -10 4 0 1 -10 -6 -22 -8 -13 -27 -70
-43 -128 -16 -58 -34 -109 -41 -115 -7 -5 -20 -39 -28 -75 -9 -36 -21 -82 -26
-103 -5 -22 -18 -55 -28 -75 -10 -21 -28 -73 -41 -117 -12 -44 -37 -120 -55
-170 -32 -86 -47 -136 -60 -198 -3 -15 -10 -25 -15 -22 -5 3 -12 -7 -15 -22
-9 -39 -14 -60 -31 -123 -8 -30 -19 -72 -25 -93 -5 -21 -13 -36 -17 -33 -4 2
-16 -26 -26 -62 -35 -129 -61 -207 -70 -214 -10 -7 -55 -171 -56 -201 0 -16
12 -17 160 -15 97 2 160 7 161 13 0 6 4 15 9 20 5 6 21 57 35 115 15 57 39
131 52 165 14 33 29 71 34 83 6 16 15 22 25 18 9 -3 143 -6 299 -6 l284 0 16
-57 c10 -32 26 -76 36 -98 10 -22 30 -83 45 -135 14 -52 32 -101 41 -107 12
-9 63 -13 171 -13 l154 0 -4 33 c-10 70 -51 201 -69 220 -10 12 -19 28 -19 37
0 9 -16 63 -35 121 -20 57 -46 139 -60 181 -13 42 -33 98 -44 124 -12 26 -33
90 -47 142 -14 53 -32 107 -40 121 -15 27 -78 210 -139 406 -19 61 -40 119
-47 130 -6 11 -24 62 -39 114 -15 52 -33 97 -39 101 -7 4 -15 23 -19 41 l-7
34 -154 2 c-89 2 -161 -1 -170 -7z m189 -509 c6 -20 17 -61 25 -91 20 -76 35
-121 51 -150 7 -14 27 -80 44 -148 17 -68 38 -131 47 -139 8 -8 14 -23 12 -32
-3 -14 -28 -16 -206 -19 l-202 -3 0 24 c0 13 9 50 20 83 11 32 22 66 24 74 2
8 11 31 19 50 15 37 34 106 42 153 2 15 11 34 20 43 8 8 15 23 15 32 0 14 27
111 45 159 8 23 35 1 44 -36z"/>
<path d="M10137 10303 c-10 -9 -6 -953 4 -1188 9 -206 29 -332 58 -355 10 -8
28 -33 39 -55 32 -62 102 -126 185 -169 64 -33 93 -41 190 -53 102 -13 130
-13 247 0 86 10 146 23 172 36 23 11 46 17 52 14 6 -3 8 -2 3 2 -4 5 13 20 37
34 39 23 65 51 132 138 12 16 26 37 31 48 15 27 43 196 45 264 l1 56 6 -45
c14 -98 21 153 21 712 l0 568 -137 0 c-76 0 -148 -3 -160 -6 l-21 -6 -4 -651
c-4 -705 -3 -690 -60 -755 -15 -18 -28 -36 -28 -41 0 -5 -35 -23 -78 -40 -87
-34 -165 -41 -198 -16 -10 8 -27 15 -37 15 -10 0 -39 11 -65 24 -38 19 -53 35
-75 78 -15 29 -27 58 -27 65 0 6 -6 13 -12 15 -10 4 -14 148 -18 659 l-5 654
-146 3 c-80 1 -148 -1 -152 -5z"/>
<path d="M11685 10302 c-7 -4 -11 -320 -12 -904 l-2 -898 160 0 159 0 1 148
c0 81 0 239 0 352 0 113 3 218 6 234 l6 29 86 -5 c54 -3 99 -12 120 -22 55
-29 116 -92 142 -147 13 -29 34 -63 45 -74 12 -12 34 -47 50 -79 15 -31 30
-56 34 -56 4 0 21 -31 39 -70 17 -38 35 -70 40 -70 5 0 22 -28 39 -63 16 -35
43 -83 61 -107 17 -24 31 -49 31 -57 0 -10 36 -13 180 -13 151 0 180 2 180 15
0 23 -40 119 -54 130 -7 6 -32 48 -55 95 -40 82 -52 104 -133 244 -21 35 -38
69 -38 74 0 6 -13 20 -30 32 -16 12 -30 28 -30 37 0 9 -34 48 -75 88 -70 67
-74 73 -58 87 10 9 33 19 50 23 47 10 153 64 153 79 0 6 14 20 30 30 29 16 74
91 108 176 19 48 27 252 13 321 -27 129 -118 264 -206 305 -27 13 -60 24 -72
24 -12 0 -29 7 -38 16 -12 12 -48 18 -153 25 -170 10 -763 11 -777 1z m848
-341 c69 -43 102 -155 77 -262 -10 -42 -23 -64 -56 -96 -55 -52 -86 -57 -359
-58 l-200 0 -3 223 -2 224 252 -4 c245 -3 254 -4 291 -27z"/>
<path d="M13657 10233 c-15 -43 -31 -94 -38 -113 -6 -19 -15 -42 -19 -51 -5
-8 -18 -51 -30 -94 -12 -44 -28 -88 -36 -100 -7 -11 -27 -74 -45 -140 -18 -66
-38 -127 -45 -135 -11 -13 -48 -133 -69 -225 -3 -16 -12 -37 -19 -45 -7 -8
-23 -51 -36 -95 -12 -44 -31 -100 -41 -125 -10 -25 -32 -94 -50 -155 -17 -60
-37 -120 -45 -132 -7 -12 -27 -68 -43 -125 -16 -57 -36 -121 -44 -143 -9 -22
-13 -43 -10 -47 2 -5 75 -8 163 -8 l158 0 12 53 c7 28 17 55 22 58 6 4 16 31
23 60 8 30 21 83 30 118 23 94 41 119 89 126 46 7 565 -1 572 -8 3 -3 18 -55
34 -115 16 -61 36 -122 45 -136 9 -13 24 -53 33 -88 l17 -63 162 -3 c148 -2
162 -1 165 15 5 25 -18 111 -35 127 -7 8 -26 63 -41 122 -16 60 -35 119 -43
132 -17 27 -37 87 -63 191 -11 41 -24 77 -30 81 -5 3 -22 46 -36 96 -14 49
-32 99 -40 111 -7 12 -27 69 -43 126 -16 58 -36 118 -44 134 -8 15 -29 78 -47
138 -18 61 -39 121 -46 135 -14 27 -64 177 -64 195 0 5 -18 53 -39 105 l-40
95 -159 3 -159 2 -26 -77z m221 -466 c5 -7 26 -71 46 -144 20 -72 43 -146 50
-165 25 -59 67 -220 62 -234 -4 -11 -42 -14 -184 -14 -215 0 -224 3 -200 71 9
24 21 66 28 94 6 27 15 54 20 60 5 6 27 76 49 158 22 81 49 164 59 184 11 21
23 52 27 68 8 30 8 30 20 -18 7 -26 17 -53 23 -60z"/>
<path d="M14527 10303 c-4 -3 -7 -71 -7 -149 0 -103 3 -145 13 -151 6 -4 104
-8 217 -8 113 0 210 -4 217 -8 9 -5 12 -185 12 -730 1 -397 1 -730 1 -739 0
-16 14 -18 145 -18 122 0 145 2 145 15 0 8 7 15 16 15 15 0 16 35 13 408 -2
224 -3 554 -1 735 l2 327 173 -2 c94 -2 196 -1 225 2 l52 4 0 153 0 153 -608
0 c-335 0 -612 -3 -615 -7z m760 -355 c-3 -7 -5 -2 -5 12 0 14 2 19 5 13 2 -7
2 -19 0 -25z"/>
<path d="M15947 9413 c3 -494 8 -900 10 -903 3 -3 263 -6 579 -8 l575 -2 -3
152 -3 153 -416 3 -417 2 -6 23 c-3 12 -6 120 -6 240 l0 217 380 0 c297 0 380
3 381 13 4 40 -1 290 -6 298 -4 6 -142 9 -363 9 -196 0 -365 0 -374 0 -15 0
-16 18 -15 191 l2 192 410 -1 c249 -1 402 2 390 8 -19 8 -19 9 3 9 22 1 22 2
22 151 l0 150 -574 0 -575 0 6 -897z"/>
<path d="M18490 9895 c-20 -24 -42 -382 -27 -437 6 -22 13 -28 36 -28 15 0 41
-10 57 -22 15 -13 76 -51 134 -84 58 -34 117 -71 131 -82 14 -12 37 -24 52
-27 14 -4 33 -15 43 -26 9 -10 25 -19 36 -19 10 0 35 -15 55 -33 21 -19 54
-39 73 -46 19 -6 43 -20 55 -30 11 -11 47 -34 80 -51 33 -17 65 -37 70 -43 6
-7 37 -28 70 -46 33 -19 74 -46 92 -61 17 -16 45 -31 62 -35 17 -4 37 -16 45
-27 14 -19 33 -31 101 -66 17 -8 40 -24 53 -36 13 -11 47 -32 75 -46 29 -14
52 -32 52 -40 0 -8 9 -15 20 -15 20 -1 45 -15 103 -61 15 -11 42 -26 60 -32
54 -18 94 -51 87 -72 -5 -15 1 -19 32 -23 79 -9 163 -63 163 -105 0 -9 7 -25
14 -35 12 -16 15 -14 29 21 16 39 36 133 62 292 20 115 19 146 -2 154 -31 10
-85 44 -112 70 -15 14 -42 31 -61 37 -19 7 -48 22 -65 34 -16 12 -56 34 -87
49 -32 15 -58 30 -58 35 0 4 -30 23 -67 41 -38 19 -79 43 -93 55 -33 29 -98
65 -115 65 -7 0 -27 11 -44 26 -16 14 -56 39 -88 56 -32 17 -71 41 -86 54 -16
13 -33 24 -39 24 -6 0 -42 21 -80 46 -39 25 -83 50 -98 56 -16 5 -31 16 -34
24 -3 8 -27 24 -53 35 -27 11 -57 28 -68 38 -11 10 -47 33 -80 50 -33 18 -71
44 -86 57 -14 13 -30 24 -36 24 -5 0 -30 15 -54 34 -24 18 -62 42 -84 54 -22
11 -51 31 -65 44 -14 13 -55 38 -92 57 -37 19 -74 44 -83 57 -8 13 -28 30 -44
39 -26 13 -30 13 -41 0z"/>
<path d="M18421 9218 c-11 -24 -31 -118 -45 -210 -24 -150 -25 -171 -12 -201
9 -24 23 -36 42 -41 43 -11 134 -55 134 -65 0 -5 21 -20 48 -32 26 -13 67 -37
92 -54 25 -18 61 -38 80 -45 19 -8 49 -24 65 -36 17 -12 54 -34 83 -48 29 -15
73 -42 98 -61 25 -19 51 -35 58 -35 7 0 23 -11 36 -25 13 -14 29 -25 35 -25 7
0 20 -8 29 -19 9 -10 29 -21 44 -24 15 -3 39 -17 54 -30 14 -13 43 -34 64 -47
22 -13 48 -31 59 -40 11 -10 37 -24 58 -31 22 -8 43 -21 48 -30 4 -9 32 -28
61 -41 30 -14 60 -33 67 -42 7 -9 20 -16 29 -16 8 0 30 -16 49 -35 19 -19 42
-35 52 -35 9 0 27 -11 39 -25 12 -14 28 -25 36 -25 14 0 108 -66 158 -111 14
-13 37 -24 50 -24 14 0 27 -9 33 -23 6 -13 25 -27 46 -33 33 -10 35 -13 34
-52 -1 -40 -3 -42 -29 -39 -22 2 -27 -1 -24 -15 3 -12 11 -17 26 -16 12 2 22
-2 22 -7 0 -6 6 -10 13 -10 29 0 162 497 149 561 -3 16 -55 39 -89 39 -12 0
-35 11 -51 25 -17 14 -35 25 -42 25 -7 0 -35 16 -61 35 -27 19 -58 35 -68 35
-11 0 -28 11 -39 25 -11 14 -28 25 -38 25 -11 0 -48 20 -83 45 -36 25 -72 45
-80 45 -9 0 -22 9 -28 19 -7 11 -29 25 -50 32 -21 6 -50 21 -65 33 -15 12 -41
31 -57 44 -16 12 -37 22 -46 22 -9 0 -30 14 -47 30 -16 17 -39 30 -50 30 -11
0 -50 22 -87 49 -36 27 -79 53 -95 57 -15 3 -48 22 -71 40 -24 18 -62 42 -84
53 -22 12 -43 25 -46 31 -4 6 -29 22 -56 35 -27 14 -56 36 -64 49 -8 12 -32
28 -53 34 -20 6 -60 32 -89 57 -28 25 -59 45 -68 45 -25 0 -223 132 -230 153
-10 28 -24 20 -44 -25z"/>
<path d="M4005 8971 c-3 -11 -25 -36 -49 -58 -73 -64 -139 -120 -186 -157 -66
-53 -127 -106 -174 -151 -60 -58 -106 -97 -146 -125 -19 -14 -52 -40 -73 -57
-20 -18 -40 -33 -45 -33 -4 0 -30 -21 -58 -48 -27 -26 -76 -65 -108 -87 -32
-22 -80 -59 -106 -81 -27 -23 -70 -57 -97 -75 -26 -18 -82 -61 -124 -96 -43
-35 -80 -63 -84 -63 -4 0 -37 -31 -74 -69 -37 -38 -83 -76 -103 -84 -19 -8
-44 -29 -54 -47 -13 -20 -25 -30 -36 -27 -10 3 -23 -2 -29 -10 -7 -8 -25 -21
-41 -29 -16 -8 -26 -19 -23 -24 6 -10 -28 -44 -45 -46 -6 -1 -15 -2 -21 -3
-15 -1 -6 -37 58 -233 38 -119 60 -171 74 -178 13 -8 19 -7 19 0 0 11 87 104
99 106 20 3 41 18 46 33 3 10 17 24 32 32 14 8 56 42 92 77 36 35 85 72 109
82 28 13 42 25 42 38 0 17 20 32 63 46 9 3 21 16 26 30 5 13 25 34 43 47 18
13 35 26 38 30 3 3 20 14 38 23 17 9 32 20 32 24 0 4 23 22 51 40 27 19 53 40
56 48 3 8 23 24 44 35 22 11 39 25 39 33 0 7 12 19 28 27 37 19 69 43 126 97
26 25 61 55 77 66 16 12 72 55 125 96 54 41 116 88 138 104 23 16 60 46 83 67
27 24 52 39 68 39 21 0 25 4 20 19 -4 15 8 29 59 65 36 25 68 55 71 67 7 21
-30 232 -45 261 -5 9 -12 36 -16 60 -9 67 -24 108 -39 108 -8 0 -16 -9 -20
-19z"/>
<path d="M17121 8724 c0 -11 3 -14 6 -6 3 7 2 16 -1 19 -3 4 -6 -2 -5 -13z"/>
<path d="M17124 8610 c0 -52 1 -74 3 -47 2 26 2 68 0 95 -2 26 -3 4 -3 -48z"/>
<path d="M18302 8593 c-12 -26 -24 -66 -28 -88 -4 -22 -11 -45 -16 -51 -17
-23 -48 -154 -48 -207 l0 -53 78 -34 c42 -18 84 -41 92 -51 17 -21 117 -69
142 -69 10 0 23 -9 30 -21 12 -19 122 -79 145 -79 6 0 16 -7 23 -15 17 -20
104 -77 178 -116 35 -18 80 -48 100 -66 20 -18 51 -37 69 -42 18 -5 50 -23 71
-39 20 -16 62 -44 92 -62 30 -18 57 -35 60 -39 6 -9 63 -49 70 -49 3 0 18 -5
33 -11 16 -6 32 -11 37 -11 5 0 15 -8 22 -19 7 -10 45 -39 85 -65 40 -25 75
-51 78 -56 3 -6 17 -10 31 -10 14 0 27 -7 31 -16 3 -8 17 -20 30 -25 14 -5 27
-18 30 -29 3 -11 10 -19 17 -18 16 2 66 -24 66 -35 0 -6 3 -7 7 -4 3 4 13 -2
21 -14 8 -11 19 -18 26 -16 6 3 17 -1 23 -8 10 -10 9 -16 -3 -26 -14 -12 -14
-14 1 -25 9 -6 24 -10 34 -7 25 6 59 -55 39 -70 -10 -6 -9 -7 2 -4 8 2 14 12
14 21 -1 9 2 16 7 16 15 0 41 62 96 230 30 93 52 179 51 198 -2 29 -4 31 -14
17 -11 -15 -15 -15 -46 -1 -18 9 -38 26 -43 39 -6 12 -19 22 -31 23 -41 2
-132 64 -94 64 6 0 10 5 10 12 0 9 -3 9 -12 0 -21 -21 -49 -13 -81 23 -18 20
-40 35 -53 35 -12 0 -29 6 -36 14 -8 7 -53 32 -100 54 -57 28 -87 48 -91 62
-3 13 -13 20 -29 20 -13 0 -40 12 -59 26 -19 14 -66 43 -106 65 -39 22 -74 46
-76 53 -3 8 -21 17 -39 21 -18 4 -51 19 -73 33 -22 15 -47 31 -56 37 -62 39
-128 85 -133 94 -4 6 -15 11 -25 11 -10 0 -34 12 -54 28 -35 27 -73 52 -130
84 -16 9 -39 25 -51 36 -11 11 -44 31 -73 46 -28 14 -54 30 -57 35 -4 5 -35
25 -70 45 -35 20 -66 43 -70 51 -3 8 -12 15 -20 15 -25 0 -85 44 -93 68 -8 22
-10 21 -31 -25z"/>
<path d="M4130 8294 c-25 -19 -72 -59 -105 -89 -33 -30 -87 -76 -120 -102 -33
-27 -85 -72 -115 -100 -30 -29 -59 -53 -64 -53 -5 0 -24 -15 -42 -32 -17 -18
-58 -53 -89 -78 -32 -25 -82 -66 -112 -92 -29 -27 -57 -48 -61 -48 -4 0 -27
-18 -51 -40 -24 -23 -61 -50 -82 -61 -21 -10 -43 -28 -49 -39 -6 -11 -29 -31
-50 -45 -39 -25 -52 -35 -141 -114 -25 -22 -56 -44 -70 -50 -13 -5 -68 -48
-122 -95 -54 -48 -102 -84 -107 -81 -16 10 -55 -16 -85 -56 -16 -23 -42 -48
-57 -57 -15 -8 -29 -24 -31 -34 -3 -10 -14 -18 -26 -18 -29 0 -28 -35 3 -113
14 -34 41 -104 60 -156 20 -52 46 -111 58 -132 l21 -38 18 23 c10 13 31 28 46
35 16 6 37 25 48 41 38 58 183 169 199 153 3 -4 6 6 6 20 0 23 8 31 55 53 33
16 57 34 61 47 9 28 33 46 60 47 15 0 23 8 27 28 5 25 42 54 72 56 5 1 15 12
22 26 7 14 35 41 62 60 53 38 134 100 191 149 20 16 48 35 63 42 15 7 27 17
27 24 0 15 42 55 58 55 6 0 34 20 62 45 28 25 54 45 58 45 5 0 32 20 60 44 29
25 61 48 72 51 11 3 20 12 20 19 0 15 42 56 58 56 12 0 83 58 161 131 29 27
50 39 62 36 41 -11 60 61 40 143 -24 90 -54 188 -66 215 -8 17 -19 49 -25 73
-6 23 -16 42 -23 41 -7 0 -32 -16 -57 -35z"/>
<path d="M12597 8205 c-9 -9 -17 -21 -17 -26 0 -5 -9 -9 -19 -9 -23 0 -31 -19
-31 -75 0 -54 39 -104 109 -140 57 -29 84 -57 84 -90 0 -39 -30 -65 -73 -65
-32 0 -41 5 -64 40 -14 22 -30 40 -34 40 -21 -1 -33 -20 -30 -50 3 -37 1 -37
125 -40 109 -4 147 28 144 124 -1 61 -28 93 -114 136 -67 33 -86 54 -87 90 0
41 15 55 60 54 30 -1 47 -8 65 -28 13 -14 31 -26 39 -26 8 0 17 -8 19 -17 3
-10 5 3 6 28 1 55 -3 61 -36 46 -19 -8 -26 -8 -32 2 -14 22 -94 26 -114 6z"/>
<path d="M12999 8208 c-59 -15 -114 -81 -135 -159 -17 -64 -17 -69 1 -125 21
-67 77 -128 128 -138 40 -8 107 -6 132 3 15 6 9 10 -30 15 -99 15 -123 43
-140 168 -8 61 13 156 38 170 10 5 27 18 38 29 12 12 33 19 58 19 45 0 62 15
28 24 -30 8 -75 6 -118 -6z"/>
<path d="M14195 8211 c-44 -4 -69 -8 -55 -11 l25 -5 0 -203 0 -203 145 3 145
3 3 33 c4 37 -4 39 -50 13 -43 -25 -123 -37 -133 -21 -6 10 -9 204 -5 353 0
14 9 17 49 17 34 0 51 -4 55 -15 3 -8 12 -15 20 -15 8 0 24 -12 35 -27 l21
-28 -3 50 -4 50 -49 7 c-55 7 -84 7 -199 -1z"/>
<path d="M14765 8210 c-3 -6 4 -10 18 -10 14 0 40 -3 58 -6 32 -5 33 -5 15 10
-22 18 -81 22 -91 6z"/>
<path d="M15502 8196 c-68 -67 -45 -182 46 -229 18 -9 46 -24 62 -33 53 -28
66 -81 28 -121 -17 -19 -18 -23 -6 -23 32 0 49 13 68 51 25 48 25 69 0 127
-18 42 -28 51 -91 81 -80 39 -104 66 -94 109 5 27 11 30 58 36 37 5 47 10 37
16 -27 17 -84 10 -108 -14z"/>
<path d="M15824 8210 c-39 -11 -56 -27 -52 -50 3 -25 28 -41 28 -19 0 17 48
59 67 59 8 0 23 -4 33 -10 17 -9 18 -23 15 -187 -3 -168 -5 -179 -25 -195 -22
-18 -20 -18 66 -18 73 0 85 2 71 13 -24 17 -31 91 -22 251 6 126 9 136 28 142
12 4 23 2 25 -5 2 -6 10 -11 18 -11 7 0 21 -15 30 -32 15 -29 18 -31 24 -14 8
23 1 64 -11 72 -12 7 -271 11 -295 4z"/>
<path d="M13755 8018 c0 -106 -4 -201 -9 -210 -8 -17 3 -18 146 -18 160 0 178
4 178 43 0 15 -6 17 -31 13 -16 -2 -37 -10 -45 -17 -18 -14 -118 -19 -131 -6
-4 5 -7 94 -6 198 l2 189 -52 0 -52 0 0 -192z"/>
<path d="M15027 8203 c-4 -3 14 -45 39 -92 26 -47 55 -103 66 -124 20 -40 29
-125 17 -169 -4 -16 -4 -28 2 -29 12 -2 41 -2 77 0 l27 1 0 104 c0 57 -2 103
-4 100 -7 -6 -69 81 -85 121 -9 20 -16 50 -16 66 0 29 -1 29 -58 29 -32 0 -62
-3 -65 -7z"/>
<path d="M15320 8205 c0 -12 24 -55 31 -55 4 0 15 10 24 22 14 21 14 23 -2 30
-21 8 -53 10 -53 3z"/>
<path d="M16210 8191 c13 -26 14 -368 0 -376 -31 -19 4 -25 145 -25 l155 0 0
29 c0 40 -17 48 -44 22 -13 -12 -43 -24 -71 -27 -40 -6 -50 -4 -61 11 -14 19
-18 93 -8 133 9 31 40 28 58 -5 l14 -28 7 47 c4 25 4 56 0 67 -6 21 -7 21 -27
-4 -19 -25 -21 -25 -39 -9 -15 14 -19 31 -19 89 0 67 2 73 23 79 48 13 70 6
108 -34 21 -22 41 -40 44 -40 7 0 6 55 -1 74 -5 14 -28 16 -150 16 -140 0
-144 -1 -134 -19z"/>
<path d="M16623 8196 c3 -8 9 -30 12 -50 5 -23 14 -38 27 -42 19 -6 58 -80 58
-111 0 -18 59 -141 72 -149 4 -3 8 -14 8 -25 0 -38 18 -17 39 46 24 75 28 116
9 97 -9 -9 -18 6 -38 67 -15 44 -34 87 -43 96 -10 9 -17 23 -17 31 0 30 -38
54 -86 54 -36 0 -45 -3 -41 -14z"/>
<path d="M16954 8195 c-4 -9 -3 -28 1 -43 13 -45 17 -324 6 -335 -21 -21 -10
-27 55 -27 63 0 65 1 58 23 -4 12 -6 106 -5 210 l2 187 -56 0 c-40 0 -57 -4
-61 -15z"/>
<path d="M14877 8181 c-5 -20 20 -51 41 -51 13 0 15 14 6 48 -8 27 -40 29 -47
3z"/>
<path d="M15650 8183 c0 -23 34 -75 43 -66 4 3 7 24 7 45 0 34 -3 38 -25 38
-17 0 -25 -5 -25 -17z"/>
<path d="M13161 8181 c-17 -11 -7 -27 29 -46 26 -14 28 -13 32 8 2 13 3 28 0
35 -4 14 -41 16 -61 3z"/>
<path d="M13464 8165 c-3 -14 -10 -25 -15 -25 -10 0 -24 -31 -35 -74 -5 -20
-2 -23 18 -19 20 4 26 -2 41 -44 9 -26 17 -51 17 -55 0 -12 -88 -9 -95 3 -5 6
-12 4 -21 -8 -21 -28 -17 -34 21 -27 57 10 97 -2 128 -41 l27 -35 -20 -20
c-11 -11 -20 -22 -20 -25 0 -3 34 -5 75 -5 83 0 91 8 55 53 -11 14 -20 29 -20
34 0 4 -6 19 -13 33 -7 14 -21 48 -31 75 -24 69 -89 204 -98 205 -4 0 -10 -11
-14 -25z"/>
<path d="M14705 8160 c-21 -41 -19 -88 7 -135 17 -32 35 -47 92 -75 53 -26 72
-41 77 -60 7 -30 -6 -70 -28 -87 -15 -12 -14 -13 5 -13 13 0 40 17 62 39 34
33 40 46 40 81 0 37 -5 47 -42 81 -24 22 -61 49 -83 61 -67 35 -103 86 -75
103 11 7 -12 35 -29 35 -6 0 -17 -13 -26 -30z"/>
<path d="M16930 8120 c-12 -7 -12 -12 -3 -21 15 -15 26 -7 21 15 -2 11 -7 13
-18 6z"/>
<path d="M18195 8100 c-3 -5 -1 -10 4 -10 6 0 11 5 11 10 0 6 -2 10 -4 10 -3
0 -8 -4 -11 -10z"/>
<path d="M14320 8043 c-43 -15 -45 -68 -3 -84 39 -15 43 -11 43 41 0 50 -5 56
-40 43z"/>
<path d="M16423 8005 c0 -22 2 -30 4 -17 2 12 2 30 0 40 -3 9 -5 -1 -4 -23z"/>
<path d="M18126 8018 c-2 -7 -10 -35 -17 -63 -6 -27 -20 -66 -29 -85 -10 -19
-27 -66 -40 -105 -12 -38 -28 -75 -35 -80 -18 -15 -4 -101 15 -96 8 2 23 6 32
8 11 3 28 -6 45 -24 16 -17 46 -36 68 -43 22 -7 47 -18 55 -26 8 -7 26 -18 40
-24 14 -6 52 -29 85 -50 33 -22 69 -44 80 -49 11 -6 40 -24 65 -40 25 -17 49
-31 54 -31 6 0 19 -8 30 -18 12 -10 41 -27 66 -37 25 -11 61 -31 80 -46 19
-14 53 -36 75 -47 22 -12 50 -31 61 -44 12 -13 43 -34 70 -48 27 -13 58 -32
68 -42 11 -10 25 -18 32 -18 7 0 32 -18 55 -40 23 -22 48 -40 55 -40 7 0 14
-4 16 -8 2 -5 36 -26 76 -47 39 -20 72 -42 72 -47 0 -5 4 -7 8 -4 5 3 19 -8
32 -25 14 -16 30 -29 37 -29 7 0 13 -4 13 -10 0 -5 10 -9 23 -8 28 2 94 -29
101 -48 3 -8 2 -13 -3 -10 -5 3 -14 -1 -21 -9 -14 -17 -3 -20 20 -5 9 6 20 5
29 -3 12 -9 13 -9 7 1 -4 6 -3 12 3 12 15 0 42 -31 36 -41 -4 -5 1 -6 9 -3 11
4 16 0 16 -13 0 -25 -21 -53 -43 -57 -10 -1 -17 -5 -17 -9 0 -4 0 -16 0 -28 0
-16 4 -19 21 -14 11 4 36 4 54 1 37 -7 38 -23 3 -62 -10 -11 -15 -24 -11 -27
15 -16 -13 -5 -44 16 -18 12 -33 28 -33 36 0 8 -6 11 -15 7 -14 -5 -70 25
-107 58 -9 8 -32 16 -50 18 -25 2 -34 8 -36 26 -2 12 -10 22 -19 22 -30 0
-148 52 -161 71 -7 11 -19 19 -27 19 -26 0 -76 35 -72 50 3 11 -4 17 -23 18
-32 2 -133 56 -128 68 2 4 -10 15 -27 23 -16 8 -46 23 -66 33 -20 10 -43 18
-51 18 -8 0 -24 11 -36 25 -12 14 -28 25 -36 25 -7 0 -19 7 -27 16 -7 8 -30
25 -52 36 -22 11 -45 24 -51 29 -53 43 -81 61 -149 98 -42 23 -90 53 -106 67
-16 13 -35 24 -44 24 -8 0 -30 13 -50 29 -20 15 -66 48 -102 71 -36 24 -65 47
-65 52 0 4 -7 8 -17 8 -9 0 -31 12 -50 26 -31 23 -36 24 -56 11 -19 -12 -77
-136 -77 -164 0 -6 -8 -17 -18 -26 -22 -20 -78 -178 -70 -199 4 -8 28 -21 54
-27 53 -13 135 -56 147 -76 4 -8 20 -16 37 -20 16 -3 39 -15 52 -24 32 -26
105 -68 156 -91 24 -11 46 -28 49 -38 2 -9 28 -27 56 -40 29 -12 65 -34 81
-47 16 -14 34 -25 41 -25 6 0 29 -13 51 -30 21 -16 47 -30 57 -30 9 0 17 -3
17 -7 0 -9 49 -40 93 -60 15 -6 27 -17 27 -22 0 -10 78 -51 97 -51 4 -1 25
-18 47 -39 21 -22 51 -42 67 -45 19 -4 30 -13 35 -30 3 -15 11 -23 19 -20 20
8 79 -27 136 -81 9 -8 19 -15 23 -15 20 0 65 -42 59 -55 -3 -9 1 -15 9 -15 8
0 23 -7 34 -15 18 -15 18 -15 0 -8 -13 4 -17 3 -12 -5 4 -6 23 -9 45 -6 25 3
44 0 53 -9 7 -8 18 -12 23 -11 6 2 19 -3 30 -12 17 -13 18 -16 5 -24 -13 -8
-12 -10 3 -10 32 0 76 -32 77 -55 0 -13 -62 -47 -79 -43 -23 5 -24 -23 -2 -29
11 -3 18 -9 15 -15 -3 -5 11 -2 31 6 45 19 48 19 39 4 -6 -9 -3 -9 9 0 9 8 21
11 26 8 6 -4 22 -4 36 0 22 5 41 36 121 197 51 104 94 198 94 209 0 10 -10 22
-24 28 -14 5 -30 18 -35 29 -9 17 -8 20 12 23 12 2 34 1 50 -3 21 -6 29 -3 37
11 14 26 13 28 -16 32 -16 2 -32 14 -42 32 -9 16 -25 38 -36 49 -15 16 -16 21
-5 28 9 6 5 7 -13 3 -16 -3 -28 -2 -28 3 0 14 39 47 47 40 3 -4 1 -7 -5 -7 -7
0 -12 -4 -12 -9 0 -6 12 -9 27 -8 19 1 28 -4 32 -18 4 -12 16 -21 31 -23 13
-1 27 -6 30 -10 13 -18 38 -10 50 15 24 53 72 169 107 261 28 74 32 96 23 107
-7 8 -18 15 -24 15 -6 0 -23 12 -37 28 -28 31 -62 52 -84 52 -8 0 -12 6 -9 13
3 9 -15 23 -56 40 -34 15 -68 27 -76 27 -8 0 -26 12 -41 26 -14 14 -49 37 -79
51 -30 14 -54 29 -54 32 0 4 -19 17 -42 29 -24 11 -58 32 -77 47 -19 14 -40
25 -46 25 -7 0 -24 11 -39 25 -15 14 -33 25 -40 25 -7 0 -24 8 -37 19 -13 10
-42 26 -64 37 -22 10 -60 32 -85 50 -25 17 -72 45 -106 62 -33 17 -67 38 -75
48 -8 9 -50 34 -93 56 -44 21 -91 48 -105 61 -44 39 -119 87 -135 87 -9 0 -24
9 -34 21 -9 11 -39 32 -65 45 -26 14 -51 32 -54 40 -3 8 -41 33 -85 55 -54 27
-82 47 -88 64 -8 20 -16 25 -45 25 -20 0 -37 -6 -39 -12z m1291 -2064 c-3 -3
-12 -4 -19 -1 -8 3 -5 6 6 6 11 1 17 -2 13 -5z"/>
<path d="M14687 7848 c-11 -42 8 -58 71 -57 31 1 47 4 34 6 -12 2 -35 20 -50
39 -31 39 -47 43 -55 12z"/>
<path d="M15460 7836 c0 -38 12 -46 71 -46 l39 0 -44 40 c-24 22 -48 40 -55
40 -6 0 -11 -15 -11 -34z"/>
<path d="M13297 7820 l-18 -30 51 0 52 0 -30 30 c-17 17 -32 30 -34 30 -2 0
-12 -13 -21 -30z"/>
<path d="M4330 7820 c0 -5 5 -10 11 -10 5 0 7 5 4 10 -3 6 -8 10 -11 10 -2 0
-4 -4 -4 -10z"/>
<path d="M16614 7815 c-16 -13 -17 -16 -4 -25 33 -22 66 -7 54 24 -8 20 -24
20 -50 1z"/>
<path d="M19969 7708 c-1 -7 -1 -17 0 -21 1 -5 -3 -6 -8 -3 -5 3 -14 -1 -21
-9 -8 -9 -8 -15 -2 -15 6 0 18 -3 27 -6 10 -4 15 -2 13 7 -2 8 4 13 15 13 23
-2 22 18 -3 34 -16 10 -20 10 -21 0z"/>
<path d="M4354 7686 c-16 -13 -51 -43 -77 -65 -27 -23 -52 -41 -57 -41 -5 0
-11 -9 -15 -19 -3 -11 -26 -31 -50 -46 -25 -14 -45 -30 -45 -35 0 -5 -18 -21
-40 -35 -45 -28 -160 -138 -160 -152 0 -5 -19 -20 -42 -33 -42 -24 -80 -53
-248 -191 -47 -39 -102 -80 -122 -92 -21 -12 -38 -27 -38 -33 0 -16 -28 -37
-53 -41 -12 -2 -37 -21 -57 -43 -20 -22 -41 -40 -48 -40 -6 0 -43 -27 -81 -61
-39 -33 -71 -58 -71 -55 0 5 -9 -1 -62 -46 -12 -10 -25 -18 -30 -18 -5 0 -32
-24 -61 -53 -81 -81 -106 -101 -131 -102 -28 -2 -78 -39 -68 -50 4 -5 -1 -5
-10 -2 -19 7 -22 0 -18 -41 3 -43 93 -238 192 -419 25 -47 65 -62 52 -20 -4
12 -16 30 -27 40 -11 9 -15 17 -9 17 7 0 12 7 12 15 0 8 -6 15 -12 15 -7 0 -2
7 10 16 13 9 31 13 45 9 12 -3 18 -3 12 2 -12 10 -19 36 -7 29 5 -3 23 4 41
15 18 11 36 17 40 14 5 -2 11 8 14 23 3 15 18 34 34 44 15 9 47 34 70 55 63
58 82 73 94 73 5 0 8 3 6 8 -5 9 30 42 37 35 3 -4 6 -1 6 5 0 7 6 12 13 12 16
0 47 36 39 45 -4 4 0 5 8 4 14 -4 60 33 60 47 0 11 29 34 44 34 9 0 40 25 69
55 29 30 58 55 63 55 6 0 25 16 44 35 19 19 39 35 43 35 5 0 22 12 37 28 15
15 45 41 66 57 20 17 52 45 70 63 18 17 38 32 44 32 6 0 33 22 61 50 27 27 64
57 82 67 39 20 100 67 142 110 17 18 46 39 65 47 19 8 59 37 87 65 29 27 66
52 83 56 62 14 64 74 6 195 -35 75 -63 146 -73 187 -3 12 -15 31 -28 43 l-22
21 -29 -25z"/>
<path d="M2307 7687 c-6 -17 18 -56 28 -45 4 3 0 18 -8 33 -11 21 -15 24 -20
12z"/>
<path d="M17974 7575 c-3 -8 -3 -19 1 -25 11 -18 25 -11 25 15 0 27 -17 34
-26 10z"/>
<path d="M17997 7515 c-12 -11 -17 -12 -20 -2 -4 9 -7 9 -18 0 -18 -18 -12
-21 53 -26 31 -3 62 -8 69 -12 7 -5 10 -3 7 6 -2 8 -19 19 -36 25 -18 5 -29
13 -26 17 4 4 2 7 -4 7 -6 0 -17 -7 -25 -15z"/>
<path d="M14780 7479 c-25 -3 -41 -7 -36 -7 5 -1 -11 -15 -36 -32 -52 -35 -69
-75 -67 -166 1 -52 15 -135 18 -110 2 14 41 -25 41 -41 0 -21 62 -43 119 -43
53 0 130 29 110 41 -8 4 -2 13 15 24 33 22 36 65 5 65 -11 0 -17 5 -14 10 3 6
-5 10 -19 10 -19 0 -26 -7 -31 -30 -11 -49 -67 -65 -124 -35 -31 16 -41 46
-41 126 0 37 6 54 25 76 14 15 29 34 35 41 12 13 58 16 76 4 6 -4 14 -17 18
-29 8 -24 41 -38 73 -31 26 5 20 58 -9 80 -13 9 -30 23 -39 31 -21 18 -62 24
-119 16z"/>
<path d="M15166 7483 c-11 -3 -37 -16 -59 -30 -53 -33 -70 -78 -70 -180 0
-145 56 -202 189 -191 51 4 61 9 86 39 40 48 34 103 -11 105 -11 1 -18 -3 -15
-7 3 -5 -10 -22 -28 -38 -41 -38 -86 -40 -123 -8 -23 19 -28 33 -32 89 -6 71
-8 65 58 146 15 18 57 14 79 -8 11 -11 20 -24 20 -29 0 -14 37 -23 60 -16 14
4 20 15 20 34 0 55 -107 112 -174 94z"/>
<path d="M5292 7472 c-18 -12 -18 -372 0 -384 7 -4 50 -8 96 -8 88 0 152 18
152 43 0 8 9 17 19 20 45 11 55 210 13 266 -37 51 -89 71 -182 71 -47 0 -91
-4 -98 -8z m187 -68 c8 -2 11 -7 8 -10 -3 -3 3 -14 14 -25 20 -20 24 -61 13
-143 -8 -56 -37 -76 -109 -76 l-45 0 0 129 c0 95 3 131 13 134 13 4 82 -1 106
-9z"/>
<path d="M5670 7280 l0 -200 140 0 140 0 0 35 0 34 -97 3 -98 3 0 50 0 50 93
3 92 3 0 28 c0 35 -16 41 -118 41 l-73 0 4 43 4 42 96 3 97 3 0 29 0 30 -140
0 -140 0 0 -200z"/>
<path d="M6020 7280 l0 -200 46 0 46 0 -6 35 c-4 20 -4 56 0 80 l6 45 58 0
c79 0 108 13 125 55 29 68 9 149 -40 161 -14 3 -25 10 -25 15 0 5 -47 9 -105
9 l-105 0 0 -200z m165 130 c50 -19 53 -100 3 -100 -11 0 -26 -7 -33 -17 -7
-9 -19 -14 -27 -10 -17 6 -32 64 -23 91 3 9 7 23 10 31 5 17 32 19 70 5z"/>
<path d="M6379 7478 c0 -2 -2 -92 -5 -200 l-4 -198 146 0 145 0 -3 33 -3 32
-100 3 -100 3 5 52 5 52 60 1 c127 2 125 1 125 33 0 35 -16 41 -124 41 -76 0
-78 1 -72 23 3 12 6 32 6 44 0 21 4 22 98 25 96 3 97 3 97 28 l0 25 -137 3
c-76 1 -138 1 -139 0z"/>
<path d="M6728 7408 c-2 -106 -2 -184 0 -260 l2 -68 40 0 39 0 3 118 3 117 37
-65 c20 -36 49 -89 64 -117 26 -49 31 -53 65 -53 30 0 38 4 42 23 7 24 -1 368
-8 375 -10 10 -75 -10 -75 -23 0 -9 6 -12 15 -9 11 5 15 -1 15 -19 0 -14 -4
-29 -10 -32 -5 -3 -10 -37 -10 -76 0 -42 -4 -69 -11 -69 -5 0 -21 24 -33 53
-13 29 -30 58 -38 65 -8 6 -25 34 -38 62 -22 47 -26 50 -62 50 l-38 0 -2 -72z"/>
<path d="M7100 7280 l0 -200 99 0 c115 0 137 6 180 52 39 42 55 96 48 173 -6
78 -26 116 -74 141 -21 10 -39 22 -41 27 -2 4 -51 7 -108 7 l-104 0 0 -200z
m217 102 c19 -23 22 -39 23 -109 0 -78 -1 -83 -26 -100 -14 -9 -50 -19 -80
-21 l-54 -4 0 129 c0 71 3 133 8 137 4 4 30 5 57 1 37 -5 56 -13 72 -33z"/>
<path d="M7595 7448 c-4 -18 -17 -49 -29 -68 -12 -19 -35 -78 -50 -130 -16
-52 -34 -99 -42 -105 -7 -5 -16 -22 -20 -37 -6 -27 -5 -28 35 -28 44 0 61 18
61 64 0 26 0 26 85 26 84 0 85 0 91 -27 14 -64 13 -63 61 -63 39 0 44 2 38 18
-3 9 -17 51 -31 92 -13 41 -33 91 -43 110 -10 19 -29 68 -42 108 l-23 72 -42
0 c-40 0 -43 -2 -49 -32z m50 -108 c4 -6 10 -8 15 -5 4 3 11 -11 14 -31 4 -19
10 -42 13 -50 4 -11 -6 -14 -48 -14 -41 0 -50 3 -41 12 7 7 12 24 12 39 0 49
19 75 35 49z"/>
<path d="M7870 7303 c0 -98 3 -188 6 -200 6 -22 11 -23 115 -23 122 0 155 9
169 45 5 14 17 28 25 31 9 4 15 19 15 38 0 35 -7 46 -35 62 -26 14 -30 46 -11
76 25 39 11 99 -30 126 -30 19 -47 22 -144 22 l-110 0 0 -177z m179 111 c28
-6 31 -10 31 -44 l0 -38 -55 -7 c-30 -3 -59 -4 -65 0 -11 7 -14 78 -3 88 8 9
51 9 92 1z m40 -199 l4 -30 7 30 8 30 1 -36 c1 -44 -25 -59 -104 -59 l-55 0 0
50 0 51 68 -3 c66 -3 67 -3 71 -33z"/>
<path d="M8250 7281 l0 -201 136 0 c87 0 133 4 129 10 -3 6 -1 10 4 10 6 0 11
9 11 21 0 11 -4 17 -10 14 -5 -3 -10 -1 -10 4 0 7 -33 11 -90 11 l-90 0 -2
163 -3 162 -37 3 -38 3 0 -200z"/>
<path d="M8579 7458 c-1 -13 -1 -61 -1 -108 1 -47 1 -127 2 -177 l0 -93 146 0
145 0 -3 33 -3 32 -102 3 -103 3 0 54 0 55 95 0 95 0 0 29 c0 36 -12 41 -111
41 l-79 0 0 45 0 45 99 0 c93 0 99 1 104 22 3 12 4 25 1 30 -3 4 -68 8 -145 8
-137 0 -139 0 -140 -22z"/>
<path d="M9090 7280 l0 -200 140 0 140 0 0 35 0 35 -107 0 -108 0 3 55 4 55
94 0 94 0 0 35 0 35 -98 0 -97 0 3 45 4 45 98 0 c85 0 98 2 102 18 10 39 1 42
-138 42 l-134 0 0 -200z"/>
<path d="M9439 7300 c-1 -99 -2 -188 -3 -197 -1 -14 8 -18 42 -19 l42 -2 0 84
0 83 73 3 72 3 3 32 3 32 -78 3 -78 3 3 40 c2 22 6 43 9 48 2 4 42 7 89 7 l84
0 0 30 0 30 -130 0 -130 0 -1 -180z"/>
<path d="M9760 7464 c-10 -11 -14 -65 -15 -197 -1 -137 -1 -145 2 -34 2 94 7
147 14 147 7 0 9 -46 7 -140 -5 -142 -1 -160 33 -160 18 0 29 43 29 123 l0 47
80 0 80 0 0 35 0 35 -72 0 c-93 0 -103 6 -91 56 l9 39 87 3 87 3 0 29 0 30
-119 0 c-95 0 -121 -3 -131 -16z"/>
<path d="M10077 7474 c-4 -4 -7 -94 -7 -201 l0 -193 40 0 40 0 2 155 c1 85 2
174 3 198 0 41 -1 42 -35 45 -20 2 -39 0 -43 -4z"/>
<path d="M10296 7461 c-56 -37 -70 -74 -71 -180 0 -84 3 -101 23 -134 31 -49
68 -67 136 -67 73 0 99 11 125 56 46 77 -1 114 -64 50 -34 -35 -63 -44 -100
-30 -23 9 -41 51 -49 112 -6 47 -4 59 19 97 20 36 32 46 62 51 29 5 39 3 50
-11 7 -11 13 -24 13 -31 0 -6 10 -14 23 -18 58 -15 78 3 58 52 -26 63 -162 95
-225 53z"/>
<path d="M10610 7280 l0 -200 40 0 40 0 0 200 0 200 -40 0 -40 0 0 -200z"/>
<path d="M10760 7280 l0 -200 146 0 145 0 -3 33 -3 32 -100 5 -100 5 0 50 0
50 93 3 92 3 0 34 0 35 -95 0 -95 0 0 39 c0 36 2 39 34 44 18 3 61 3 95 0 60
-6 61 -5 61 19 0 22 -6 25 -70 36 -39 7 -100 12 -135 12 l-65 0 0 -200z"/>
<path d="M11117 7473 c-4 -3 -7 -93 -7 -200 l0 -193 40 0 39 0 3 123 c3 121 3
122 19 87 9 -19 28 -52 42 -73 14 -21 36 -60 48 -88 21 -46 25 -49 61 -49 l38
0 0 200 0 200 -25 0 c-16 0 -25 -6 -25 -16 0 -8 -4 -12 -10 -9 -6 4 -10 -34
-10 -106 0 -125 -4 -128 -49 -39 -14 27 -42 76 -61 110 -31 52 -39 60 -66 60
-17 0 -34 -3 -37 -7z"/>
<path d="M11464 7455 c-3 -14 -5 -28 -2 -30 2 -2 27 -5 56 -6 l52 -3 0 -168 0
-168 40 0 40 0 0 164 c0 184 -3 176 76 176 44 0 45 1 42 28 l-3 27 -147 3
-147 3 -7 -26z"/>
<path d="M12016 7471 c-3 -5 -3 -30 1 -56 3 -28 9 -42 14 -34 9 15 10 8 34
-121 9 -47 21 -107 27 -133 l10 -48 41 3 c39 3 41 5 44 38 5 47 11 62 22 56 9
-6 18 28 36 127 12 65 26 47 40 -55 4 -27 12 -46 18 -45 7 1 16 -20 20 -48 14
-78 13 -76 59 -73 l42 3 12 70 c7 39 18 103 24 144 7 44 15 68 20 61 5 -8 12
8 20 43 6 31 9 61 5 67 -8 12 -62 13 -69 1 -3 -4 -11 -41 -17 -82 -6 -41 -22
-94 -34 -119 l-23 -45 -7 40 c-3 22 -10 60 -15 85 -5 25 -11 61 -15 81 -4 27
-12 38 -28 43 -72 19 -93 -3 -113 -120 -23 -135 -23 -136 -49 -73 -12 30 -26
81 -30 114 -4 33 -12 66 -17 73 -12 14 -64 16 -72 3z"/>
<path d="M12546 7464 c-3 -9 -6 -99 -6 -200 l0 -184 150 0 c141 0 150 1 150
19 0 48 -6 51 -116 51 l-104 0 0 33 c0 78 3 79 102 75 l89 -3 -3 35 -3 35 -94
3 -93 3 6 31 c3 17 6 37 6 44 0 11 23 14 106 14 105 0 105 0 98 23 -4 12 -12
25 -18 29 -6 4 -68 8 -137 8 -107 0 -128 -3 -133 -16z"/>
<path d="M13126 7433 c-9 -27 -26 -66 -38 -88 -20 -37 -64 -177 -75 -237 -5
-26 -3 -28 25 -28 26 0 33 6 51 45 l22 46 72 -3 72 -3 19 -42 c18 -40 22 -43
58 -43 42 0 48 12 23 47 -8 12 -25 52 -36 90 -12 37 -31 88 -44 113 -13 25
-31 69 -40 98 -16 51 -18 52 -54 52 -37 0 -39 -2 -55 -47z m83 -120 c19 -67
16 -73 -34 -73 -25 0 -45 4 -45 9 0 25 41 101 54 101 9 0 19 -16 25 -37z"/>
<path d="M13414 7466 c-6 -16 -10 -159 -6 -288 l2 -98 40 0 40 0 0 85 c0 79 1
85 21 85 28 0 59 -18 59 -35 0 -7 18 -35 40 -60 22 -25 40 -53 40 -61 0 -10
13 -14 45 -14 25 0 45 4 45 9 0 20 -22 66 -40 85 -11 12 -31 33 -44 48 l-24
27 41 25 c23 14 36 25 28 26 -11 0 -8 6 7 20 25 23 26 31 12 80 -16 55 -79 80
-203 80 -73 0 -99 -3 -103 -14z m214 -73 c6 -9 12 -27 12 -39 0 -20 -7 -24
-47 -29 -101 -13 -103 -12 -103 39 0 51 9 57 80 50 26 -2 50 -11 58 -21z"/>
<path d="M13805 7468 c-3 -7 -4 -96 -2 -198 l2 -185 136 -3 137 -3 6 26 c4 14
4 30 1 35 -4 6 -55 10 -116 10 l-109 0 0 49 0 50 43 5 c23 4 69 7 102 9 55 2
60 4 63 26 5 34 -12 41 -115 41 l-93 0 0 35 c0 47 20 55 129 55 l91 0 0 30 0
30 -135 0 c-99 0 -137 -3 -140 -12z"/>
<path d="M14372 7453 c-6 -16 -18 -56 -28 -90 -9 -35 -22 -63 -28 -63 -10 0
-66 -178 -66 -209 0 -12 48 -15 67 -3 6 4 15 23 20 42 l9 35 82 3 81 3 6 -28
c10 -47 21 -58 59 -61 29 -3 36 0 36 15 0 33 -12 63 -25 63 -8 0 -16 15 -20
33 -3 17 -10 43 -15 57 -5 14 -18 58 -30 98 -12 40 -25 70 -30 67 -5 -3 -14
11 -21 30 -12 31 -17 35 -50 35 -31 0 -38 -4 -47 -27z m85 -170 l10 -43 -43 0
c-47 0 -49 3 -38 59 4 17 12 31 19 31 7 0 16 8 20 18 7 16 8 15 15 -3 4 -11
12 -39 17 -62z"/>
<path d="M15420 7319 l0 -161 39 -39 c37 -37 42 -39 100 -39 34 0 77 6 96 14
47 20 56 62 53 238 l-3 143 -25 0 -25 0 -3 -144 c-2 -134 -4 -144 -25 -162
-29 -24 -89 -25 -110 -1 -13 14 -17 46 -19 162 l-3 145 -37 3 -38 3 0 -162z"/>
<path d="M15807 7473 c-4 -3 -7 -93 -7 -200 l0 -193 35 0 35 0 0 70 c0 43 4
70 11 70 5 0 8 4 5 9 -7 11 31 22 49 15 8 -3 18 -19 24 -35 5 -16 16 -29 24
-29 7 0 25 -21 38 -47 l24 -48 87 -3 c80 -3 87 -1 93 18 4 11 17 32 29 45 20
21 32 25 85 25 68 0 85 -10 102 -60 10 -26 16 -30 50 -30 l38 0 -20 48 c-12
26 -32 83 -44 126 -13 43 -29 83 -37 87 -7 4 -22 36 -34 71 -20 61 -22 63 -58
66 -33 3 -38 0 -50 -30 -8 -18 -17 -50 -21 -70 -4 -21 -13 -38 -20 -38 -7 0
-24 -41 -41 -96 -27 -91 -54 -144 -75 -144 -5 0 -9 7 -9 17 0 20 -76 123 -92
123 -7 0 -6 5 2 15 7 8 21 15 31 15 31 0 50 42 47 102 -3 51 -4 54 -45 74 -23
12 -39 24 -36 28 4 3 -43 6 -104 6 -60 0 -113 -3 -116 -7z m204 -70 c5 -5 11
-23 15 -40 6 -30 4 -32 -28 -38 -18 -4 -54 -5 -78 -3 -50 3 -63 24 -35 52 9 9
14 20 11 25 -4 5 0 12 6 15 18 8 98 0 109 -11z m354 -90 c4 -21 9 -46 12 -55
4 -15 -3 -18 -42 -18 l-47 0 7 43 c11 71 60 92 70 30z"/>
<path d="M16515 7465 c-3 -8 -7 -21 -9 -29 -6 -18 16 -27 52 -20 49 9 52 -1
59 -175 l6 -162 36 3 36 3 3 163 c2 119 6 162 15 163 6 1 19 3 27 4 8 1 27 3
43 4 31 1 36 21 11 45 -22 23 -272 24 -279 1z"/>
<path d="M16853 7473 c-10 -3 -13 -53 -13 -199 l0 -195 153 3 c152 3 152 3
155 27 2 13 -2 28 -10 32 -7 5 -60 9 -118 9 l-105 0 4 52 5 53 6 -40 6 -40 5
40 4 40 83 3 83 3 -3 32 -3 32 -92 3 c-85 2 -93 4 -93 22 0 11 6 19 13 18 6
-2 12 4 12 12 0 8 -6 14 -12 13 -7 -2 -13 1 -13 6 0 13 53 21 141 21 72 0 79
2 79 20 0 10 -9 24 -19 30 -20 10 -245 13 -268 3z"/>
<path d="M15722 7285 c0 -16 2 -22 5 -12 2 9 2 23 0 30 -3 6 -5 -1 -5 -18z"/>
<path d="M19670 7201 c-8 -6 -18 -7 -22 -5 -4 3 -8 3 -8 0 0 -7 38 -27 60 -31
30 -6 34 14 4 21 -19 5 -22 9 -12 15 7 5 9 9 3 9 -5 0 -17 -4 -25 -9z"/>
<path d="M11755 7144 c-9 -9 -14 -23 -11 -31 3 -8 6 -18 6 -23 0 -5 12 -10 28
-12 l27 -4 -27 -12 c-20 -8 -28 -19 -28 -37 0 -29 -2 -28 37 -14 28 9 31 15
37 71 6 46 4 63 -6 69 -20 13 -45 10 -63 -7z"/>
<path d="M4585 7111 c-17 -10 -39 -30 -48 -44 -9 -15 -41 -42 -71 -61 -30 -19
-57 -44 -61 -56 -4 -11 -25 -32 -48 -47 -22 -14 -57 -41 -76 -60 -20 -19 -76
-68 -126 -109 -49 -41 -101 -85 -115 -98 -14 -13 -33 -26 -43 -30 -10 -3 -15
-10 -12 -16 3 -5 -1 -10 -9 -10 -9 0 -16 -4 -16 -8 0 -5 -17 -18 -39 -30 -21
-12 -46 -33 -55 -47 -9 -13 -33 -29 -55 -36 -24 -7 -43 -21 -49 -34 -6 -13
-35 -39 -64 -59 -29 -19 -69 -50 -89 -69 -44 -41 -159 -120 -159 -110 0 5 -6
-3 -13 -16 -6 -14 -33 -36 -59 -50 -25 -14 -58 -38 -71 -53 -14 -15 -37 -30
-51 -34 -14 -3 -26 -10 -26 -15 0 -19 -4 -25 -29 -47 -17 -15 -33 -20 -46 -17
-31 10 -68 14 -76 9 -4 -2 -1 -16 6 -31 23 -43 1 -68 -55 -64 -10 0 -11 -1 -2
-5 6 -3 12 -13 12 -22 1 -30 219 -394 232 -386 3 2 10 -1 14 -7 4 -8 3 -9 -4
-5 -18 11 -15 2 17 -51 16 -26 50 -86 75 -133 129 -235 273 -448 436 -641 127
-152 176 -213 191 -240 36 -64 206 -264 325 -384 82 -82 232 -244 345 -370 24
-27 53 -58 64 -68 11 -10 58 -55 105 -100 47 -45 140 -133 208 -194 l122 -113
54 0 c29 0 73 7 96 15 23 8 59 15 79 15 20 0 92 6 161 15 69 8 170 19 225 25
323 33 387 42 453 62 53 17 72 27 72 40 0 10 10 23 23 30 42 24 126 93 126
105 1 6 17 21 36 33 19 12 35 25 35 29 0 5 42 39 93 76 50 38 97 73 102 79 22
23 121 104 142 115 13 6 33 21 46 34 39 36 99 82 143 110 35 22 42 32 47 69 3
24 0 65 -7 93 -7 28 -19 79 -26 115 -13 71 -41 129 -71 148 -11 7 -40 15 -64
19 -39 5 -45 3 -39 -10 3 -9 -3 -23 -16 -34 -12 -10 -38 -34 -58 -54 -20 -20
-58 -50 -84 -68 -26 -17 -84 -66 -130 -109 -46 -42 -96 -84 -112 -92 -16 -8
-37 -27 -45 -42 -9 -15 -36 -39 -61 -52 -25 -14 -59 -39 -75 -58 -17 -18 -44
-41 -60 -50 -33 -19 -106 -76 -145 -112 -14 -12 -44 -31 -66 -42 -23 -10 -49
-31 -57 -47 -9 -15 -36 -36 -61 -46 -24 -11 -48 -26 -53 -33 -4 -8 -24 -25
-43 -38 -19 -13 -47 -37 -62 -52 -14 -15 -36 -28 -47 -28 -14 0 -32 -16 -53
-44 -21 -31 -44 -49 -75 -61 l-45 -17 -27 26 c-22 21 -33 25 -58 20 -25 -5
-31 -3 -29 10 3 19 47 62 59 58 5 -1 6 2 2 8 -6 10 37 60 54 60 5 0 27 18 49
40 21 22 44 40 50 40 7 0 12 5 12 10 0 6 7 13 16 17 23 8 59 45 67 66 4 10 27
27 52 38 25 11 45 24 45 28 0 12 62 71 74 71 15 1 99 79 125 117 12 18 34 34
50 38 17 3 41 21 56 41 14 19 33 34 41 34 8 0 32 17 54 38 87 83 150 136 177
147 15 7 38 26 51 44 12 17 28 31 35 31 7 0 24 10 38 23 112 95 177 141 222
157 58 20 24 76 -107 170 -27 19 -58 45 -70 56 -40 41 -119 96 -162 114 -23
10 -48 28 -54 39 -14 26 -36 27 -50 1 -9 -17 -6 -21 27 -35 82 -32 88 -44 36
-76 -21 -12 -55 -39 -75 -60 -21 -21 -46 -40 -58 -44 -11 -3 -20 -13 -20 -20
0 -8 -12 -22 -26 -32 -15 -10 -46 -37 -70 -60 -24 -24 -52 -43 -62 -43 -11 0
-27 -11 -36 -24 -17 -27 -132 -124 -199 -169 -23 -15 -62 -48 -87 -72 -25 -25
-50 -45 -54 -45 -5 0 -18 -9 -30 -20 -52 -51 -128 -110 -140 -110 -7 0 -26
-11 -42 -25 -16 -14 -32 -25 -36 -25 -4 0 -9 -9 -13 -19 -3 -11 -24 -26 -46
-35 -22 -9 -51 -27 -65 -41 -14 -14 -38 -32 -55 -40 -16 -9 -47 -34 -68 -56
-29 -29 -47 -39 -70 -39 l-31 0 15 36 c19 46 19 65 0 58 -8 -4 -12 -11 -8 -18
4 -7 3 -8 -5 -1 -5 6 -12 27 -15 47 -4 35 -3 38 32 49 45 14 53 22 55 51 1 15
11 28 33 38 18 8 51 32 73 53 22 20 44 37 49 37 4 0 13 11 19 25 7 14 22 29
35 34 12 5 54 40 93 79 39 38 81 73 93 77 11 3 21 10 21 14 0 4 22 20 48 34
27 14 54 36 61 49 7 13 51 52 99 88 47 36 103 81 125 101 21 20 52 39 68 43
16 3 29 10 29 16 0 18 34 50 53 50 11 0 45 26 76 59 34 35 79 69 113 85 56 26
57 28 46 54 -10 23 -31 47 -120 137 -103 105 -264 225 -302 225 -18 0 -22 15
-6 25 24 15 2 56 -74 140 -17 19 -56 61 -86 95 -30 33 -63 68 -73 78 -10 9
-30 29 -45 45 -14 15 -34 27 -43 27 -36 0 -49 11 -43 37 4 15 1 28 -9 36 -8 7
-20 28 -26 48 -6 20 -25 51 -41 69 -17 19 -30 39 -30 46 0 6 -12 19 -26 29
-14 9 -32 31 -39 49 -13 32 -127 146 -145 146 -12 0 -22 -34 -15 -53 4 -10 -7
-24 -32 -43 -21 -16 -57 -45 -80 -66 -24 -21 -46 -38 -51 -38 -5 0 -23 -19
-40 -42 -16 -24 -60 -65 -97 -93 -36 -27 -109 -87 -163 -132 -53 -46 -103 -83
-109 -83 -7 0 -13 -4 -13 -8 0 -17 -63 -71 -90 -77 -18 -4 -36 -19 -49 -41
-15 -24 -27 -34 -45 -34 -26 0 -66 -34 -66 -57 0 -7 -15 -19 -34 -27 -19 -8
-42 -26 -51 -40 -9 -14 -32 -30 -50 -36 -18 -6 -36 -17 -39 -25 -3 -8 -12 -15
-20 -15 -8 0 -16 -4 -18 -8 -1 -5 -32 -28 -67 -52 -35 -24 -66 -51 -68 -61 -3
-10 -19 -23 -36 -30 -18 -7 -37 -18 -44 -24 -36 -30 -43 -35 -54 -35 -7 0 -10
-3 -6 -6 6 -6 -3 -17 -34 -42 -14 -10 -19 -8 -34 14 -16 26 -16 27 0 37 14 7
15 11 4 17 -9 6 -3 13 22 25 36 17 69 65 44 65 -7 0 -22 3 -32 6 -15 5 -15 4
-3 -5 11 -8 5 -9 -23 -4 -21 3 -37 2 -35 -3 2 -10 -6 -41 -24 -87 -8 -21 -15
-26 -31 -21 -13 4 -17 2 -13 -5 4 -6 0 -11 -9 -11 -8 0 -18 -7 -21 -15 -4 -9
-19 -15 -36 -15 -26 0 -29 2 -18 15 7 8 9 15 4 15 -5 0 2 6 15 13 13 6 22 14
20 17 -6 8 62 73 68 66 10 -10 42 14 37 28 -3 8 10 30 29 50 20 20 32 36 29
36 -4 0 6 9 22 19 16 11 36 17 44 13 8 -3 13 -1 10 4 -3 5 3 17 14 27 12 11
18 13 18 5 0 -9 3 -8 9 2 6 8 7 18 5 22 -5 8 36 28 46 23 3 -2 11 3 18 11 7 8
10 14 7 14 -3 0 5 11 19 23 14 13 22 27 18 31 -4 4 -2 7 3 5 13 -3 68 22 77
36 4 5 6 16 3 23 -2 6 2 12 9 12 8 0 16 6 19 13 2 7 22 21 43 32 22 11 70 50
109 88 38 37 76 67 85 67 8 0 28 16 45 36 16 19 51 47 77 61 26 14 46 29 44
32 -2 3 2 12 10 19 8 7 14 10 14 6 0 -4 11 4 24 17 13 13 47 40 74 59 28 19
48 38 46 42 -2 3 5 9 16 13 11 3 35 22 55 41 19 19 41 34 48 34 7 0 37 23 67
51 30 28 66 61 80 73 28 26 90 50 90 35 0 -5 7 -9 15 -9 8 0 15 -4 15 -10 0
-13 47 -13 55 0 4 6 -8 24 -25 41 -24 24 -28 34 -19 45 12 14 3 54 -12 54 -5
0 -23 28 -40 63 -17 34 -42 73 -56 86 -13 13 -32 43 -42 65 -10 23 -29 47 -44
55 -23 12 -30 11 -66 -10 -22 -13 -82 -63 -133 -112 -202 -190 -224 -209 -299
-262 -101 -71 -136 -99 -160 -132 -13 -18 -31 -35 -40 -38 -9 -3 -26 -13 -37
-23 -11 -9 -33 -26 -48 -37 -16 -11 -43 -35 -60 -52 -18 -18 -39 -33 -47 -33
-9 0 -17 -3 -19 -7 -6 -15 -120 -103 -133 -103 -7 0 -32 -17 -56 -39 -107 -95
-127 -111 -137 -111 -6 0 -38 -27 -72 -60 -34 -33 -66 -58 -71 -55 -5 4 -9 1
-9 -4 0 -6 -3 -10 -7 -9 -18 4 -63 -27 -61 -41 2 -11 -4 -16 -19 -15 -12 0
-20 -3 -17 -8 3 -4 -1 -8 -9 -8 -8 0 -20 -7 -27 -15 -9 -11 -15 -12 -25 -2
-12 10 -11 14 2 24 13 10 13 12 -5 10 -11 0 -20 -4 -20 -7 5 -58 -52 -25 -65
37 -5 25 -2 32 19 43 13 7 24 17 24 22 0 4 7 8 15 8 8 0 15 6 15 14 0 8 10 22
22 30 12 9 19 16 15 16 -5 0 -2 7 7 15 8 8 18 15 23 15 4 0 14 9 21 20 7 11
17 20 23 20 6 0 26 15 44 33 48 47 74 67 86 67 5 0 7 5 4 10 -3 6 0 10 8 10 7
0 23 11 35 25 12 14 26 25 32 25 5 0 9 5 7 12 -1 7 8 17 21 23 12 5 22 16 22
24 0 8 3 11 6 8 9 -8 84 51 84 66 0 14 54 47 76 47 8 0 13 5 11 11 -1 6 13 19
30 28 18 9 33 19 33 23 0 13 77 88 89 88 6 0 11 4 11 10 0 5 3 9 8 8 9 -3 72
34 72 43 0 10 88 99 98 99 5 0 31 20 58 45 27 25 59 48 71 51 13 4 23 10 23
14 0 5 25 22 55 39 30 17 55 35 55 41 0 5 21 22 48 37 26 15 52 33 57 39 38
45 153 134 172 134 13 0 26 7 29 15 7 17 -29 118 -56 155 -11 15 -29 50 -40
76 -33 77 -83 154 -100 154 -8 0 -29 -8 -45 -19z m522 -913 c-3 -8 -6 -5 -6 6
-1 11 2 17 5 13 3 -3 4 -12 1 -19z m367 -481 c-2 -7 16 -34 41 -61 l45 -49
-37 -41 c-20 -22 -42 -43 -47 -45 -6 -2 -34 -25 -62 -50 -81 -74 -256 -216
-291 -236 -17 -10 -36 -29 -42 -42 -6 -13 -22 -27 -35 -32 -13 -6 -43 -28 -67
-51 -24 -23 -58 -48 -76 -56 -18 -8 -67 -45 -110 -84 -54 -49 -91 -74 -120
-81 -24 -6 -43 -17 -43 -23 0 -15 -48 -66 -61 -66 -6 0 -20 -11 -31 -25 -11
-14 -27 -25 -37 -25 -15 0 -44 -25 -48 -43 -8 -33 -112 -62 -128 -36 -4 5 -1
9 4 9 6 0 11 4 11 10 0 5 -8 6 -17 3 -16 -6 -17 -5 -3 13 14 18 14 18 -2 5
-15 -11 -21 -11 -35 0 -11 9 -14 10 -9 2 4 -7 -2 -20 -14 -30 -11 -10 -20 -23
-20 -31 0 -8 7 -6 22 8 12 11 27 20 34 20 13 0 28 -18 29 -35 1 -13 -21 -35
-34 -35 -6 0 -10 -3 -10 -7 4 -26 -4 -41 -28 -53 -36 -17 -55 -21 -47 -9 3 5
0 9 -6 9 -13 0 -9 41 5 53 6 5 -2 6 -17 3 -16 -4 -28 -2 -28 4 0 5 -10 10 -22
10 -21 1 -21 2 -5 11 9 5 17 18 17 28 0 11 12 24 30 31 17 7 28 15 25 18 -3 3
5 12 16 20 18 12 23 13 30 1 5 -8 9 -9 9 -3 0 7 12 15 27 19 24 6 26 8 10 16
-9 6 -17 15 -17 21 0 13 61 68 76 68 6 0 20 11 32 25 12 14 26 25 31 25 5 0
12 11 15 24 3 14 18 29 36 36 17 7 41 25 54 40 12 15 36 35 52 44 38 20 84 62
84 76 0 5 5 10 11 10 6 0 40 27 76 59 36 32 77 65 92 72 30 16 56 39 44 39 -4
0 15 15 42 33 28 18 64 46 81 62 18 17 44 39 58 50 15 11 37 28 49 39 12 10
33 26 47 34 14 9 29 22 33 29 4 7 33 29 64 50 31 20 70 50 87 65 17 15 35 28
41 28 5 0 21 9 35 20 28 22 62 27 54 7z m386 -498 c3 -4 25 -9 48 -10 31 -2
41 -7 37 -16 -2 -8 -1 -12 4 -9 5 3 14 0 19 -7 9 -10 0 -24 -33 -59 -24 -26
-53 -49 -65 -53 -11 -4 -40 -25 -64 -48 -23 -23 -69 -63 -102 -89 -137 -109
-241 -198 -271 -232 -17 -20 -38 -36 -45 -36 -8 0 -35 -20 -61 -45 -26 -24
-65 -54 -87 -65 -22 -11 -40 -25 -40 -30 0 -18 -54 -58 -87 -65 -18 -3 -31
-10 -29 -14 3 -4 -6 -14 -19 -21 -14 -7 -25 -17 -25 -21 0 -4 -16 -13 -35 -19
-19 -6 -36 -18 -36 -26 -1 -8 -2 -20 -3 -26 0 -7 -5 -13 -11 -14 -32 -2 -107
-50 -163 -101 -7 -7 -18 -13 -23 -13 -6 0 -7 -5 -3 -12 4 -6 3 -8 -4 -4 -6 3
-20 -3 -31 -15 -26 -28 -74 -53 -68 -36 2 6 13 13 25 15 15 2 22 10 22 26 0
12 5 27 11 33 8 8 5 13 -10 18 -12 3 -21 10 -21 15 0 9 -39 25 -52 22 -3 -1
-5 5 -4 12 3 24 58 66 86 66 22 0 29 6 33 29 5 26 34 46 60 42 5 -1 6 3 2 9
-3 5 -1 10 5 10 6 0 8 5 5 10 -3 6 -1 10 5 10 6 0 8 5 5 10 -3 6 0 10 7 10 7
0 25 15 39 33 14 17 39 39 55 47 16 8 36 20 46 28 12 10 18 11 24 1 4 -8 3
-10 -4 -5 -7 4 -12 2 -12 -3 0 -17 15 -13 34 8 10 11 15 24 11 30 -6 11 37 61
52 61 5 0 29 19 54 43 70 65 112 99 136 110 13 5 25 19 29 29 3 10 22 29 42
42 20 13 50 38 66 54 16 17 41 34 57 37 15 4 35 18 44 31 9 14 32 32 52 40 19
9 37 24 40 34 3 10 15 21 28 24 12 3 38 23 56 43 48 56 98 84 134 77 17 -4 32
-10 35 -15z m-2215 -199 c-3 -5 -12 -10 -18 -10 -7 0 -6 4 3 10 19 12 23 12
15 0z m55 -118 c0 -12 -22 -32 -35 -32 -6 0 -11 9 -11 20 0 14 7 20 23 20 13
0 23 -4 23 -8z m437 -372 c2 -20 -8 -26 -20 -13 -4 3 -2 12 4 20 15 17 14 17
16 -7z m-23 -34 c7 3 13 -2 13 -11 0 -18 -7 -19 -28 -2 -9 7 -13 19 -10 27 4
12 6 12 9 -2 2 -9 9 -15 16 -12z m556 -255 c0 -6 -4 -13 -10 -16 -5 -3 -10 1
-10 9 0 9 5 16 10 16 6 0 10 -4 10 -9z m-57 -15 c3 4 5 -4 4 -16 -2 -27 -33
-46 -52 -30 -7 6 -12 18 -11 26 3 21 28 35 42 24 6 -6 14 -7 17 -4z m17 -110
c14 -18 14 -19 -6 -8 -12 6 -25 8 -30 4 -5 -4 -2 1 5 11 8 9 14 16 15 15 1 -2
8 -12 16 -22z m-70 0 c0 -2 -8 -10 -17 -17 -16 -13 -17 -12 -4 4 13 16 21 21
21 13z m504 -281 c-10 -8 -23 -15 -28 -15 -6 0 -1 7 10 15 10 8 23 15 28 15 6
0 1 -7 -10 -15z m-44 -65 c-33 -26 -49 -26 -19 0 13 10 29 19 34 19 6 1 -1 -8
-15 -19z m405 -470 c3 -5 21 -8 39 -6 23 3 33 1 33 -9 0 -17 -56 -28 -72 -15
-7 6 -17 10 -21 9 -25 -4 -44 3 -44 16 0 17 55 21 65 5z m-55 -72 c-19 -5 -49
-13 -66 -19 -17 -5 -44 -9 -60 -9 -28 1 -28 1 -9 16 11 8 37 17 58 21 21 3 41
12 44 19 4 11 11 10 36 -3 l32 -17 -35 -8z"/>
<path d="M5392 5618 c7 -19 35 -21 41 -3 5 11 0 15 -19 15 -16 0 -24 -5 -22
-12z"/>
<path d="M4503 4895 c-18 -19 -16 -24 6 -22 12 1 17 7 13 19 -5 21 -4 21 -19
3z"/>
<path d="M4440 4831 c0 -5 -10 -12 -22 -15 -22 -7 -22 -7 -3 -15 13 -5 21 -4
24 3 2 6 10 17 19 24 14 11 14 12 -1 12 -9 0 -17 -4 -17 -9z"/>
<path d="M4754 4314 c3 -9 6 -18 6 -20 0 -2 7 -4 15 -4 8 0 15 6 15 13 0 8 4
7 10 -3 7 -10 10 -11 10 -2 0 7 -12 17 -26 22 -34 13 -37 13 -30 -6z"/>
<path d="M2487 7101 c6 -25 32 -36 28 -13 -2 9 -4 20 -4 25 -1 4 -7 7 -15 7
-9 0 -12 -7 -9 -19z"/>
<path d="M19853 7089 c9 -6 14 -16 11 -22 -5 -9 -4 -9 6 0 15 14 5 33 -18 33
-15 -1 -15 -2 1 -11z"/>
<path d="M17729 7003 c-1 -5 -1 -12 0 -16 1 -4 -8 -17 -19 -29 -21 -23 -13
-38 23 -38 15 0 15 3 5 19 -10 16 -9 23 5 39 9 10 14 22 10 25 -9 9 -23 9 -24
0z"/>
<path d="M17760 6975 c0 -2 10 -10 23 -16 20 -11 21 -11 8 4 -13 16 -31 23
-31 12z"/>
<path d="M17651 6887 c-17 -18 -31 -37 -31 -42 0 -4 -20 -40 -44 -79 -48 -77
-126 -228 -126 -244 0 -5 16 -12 35 -15 30 -5 77 -25 166 -72 12 -6 17 -16 13
-28 -5 -15 -2 -18 13 -13 10 3 34 -3 53 -13 19 -10 54 -29 78 -41 23 -12 42
-26 42 -31 0 -4 18 -13 41 -19 23 -6 56 -27 75 -46 19 -19 40 -34 46 -34 17 0
100 -40 123 -60 30 -26 115 -70 134 -70 9 0 21 -12 27 -28 8 -20 18 -28 39
-30 18 -1 38 -13 50 -28 11 -14 43 -34 70 -43 45 -16 50 -21 50 -47 0 -20 5
-28 14 -26 8 2 21 0 30 -4 9 -4 29 -8 45 -10 16 -2 36 -9 43 -16 12 -10 11
-15 -9 -30 -28 -21 -7 -24 26 -3 29 19 56 10 56 -20 0 -16 7 -25 23 -29 13 -3
47 -24 74 -46 28 -22 56 -40 62 -40 11 0 15 -20 11 -50 -1 -12 1 -12 12 2 12
15 17 15 48 2 20 -8 40 -24 45 -37 7 -16 18 -22 38 -21 19 1 25 -2 18 -9 -7
-7 -5 -15 7 -24 11 -10 12 -12 2 -7 -13 6 -13 5 0 -7 8 -8 21 -21 29 -29 12
-13 13 -13 8 1 -4 11 1 15 16 14 12 -1 23 -9 25 -18 2 -9 9 -14 18 -10 8 3 21
0 29 -7 13 -11 12 -16 -10 -36 -27 -25 -55 -32 -55 -14 0 6 -4 10 -8 10 -5 0
-9 -7 -9 -15 0 -8 8 -15 17 -15 10 0 21 -13 27 -35 11 -35 11 -35 -20 -35 -34
0 -58 11 -59 26 -1 22 -12 35 -27 33 -33 -3 -52 1 -46 11 3 5 12 7 20 4 8 -3
20 4 27 15 7 12 23 21 36 21 14 0 21 4 16 11 -3 6 -18 8 -33 5 -14 -3 -21 -3
-15 0 6 2 9 15 7 28 -5 22 -7 22 -40 11 -44 -15 -58 -37 -43 -66 7 -11 9 -23
6 -27 -3 -3 -6 -1 -6 5 0 6 -9 10 -20 9 -11 0 -20 4 -21 9 0 6 -5 16 -11 23
-8 9 -6 11 8 6 17 -5 18 -5 2 6 -10 6 -24 10 -30 9 -26 -3 -39 2 -60 23 -12
12 -29 23 -38 25 -8 1 -16 6 -18 11 -2 6 -11 8 -21 5 -9 -2 -23 3 -30 11 -8 9
-19 16 -25 16 -6 0 -23 14 -38 30 -14 17 -35 30 -47 30 -11 0 -22 4 -26 9 -3
5 -28 17 -55 26 -27 9 -58 27 -69 41 -10 13 -26 24 -34 24 -9 0 -29 11 -45 25
-17 14 -37 25 -46 25 -8 0 -23 11 -32 26 -11 15 -23 23 -32 19 -9 -3 -26 5
-41 18 -14 14 -43 30 -63 37 -21 6 -44 20 -52 31 -7 11 -29 28 -47 38 -19 10
-65 35 -104 55 -74 39 -119 69 -187 124 -23 18 -69 46 -102 61 -34 15 -72 37
-86 49 -69 59 -90 72 -113 72 -18 0 -30 8 -39 27 -7 15 -26 34 -41 41 -26 13
-31 12 -53 -9 -13 -12 -24 -28 -24 -35 0 -7 -13 -29 -30 -47 -16 -19 -30 -39
-30 -44 0 -5 -8 -18 -18 -29 -51 -55 -118 -175 -104 -188 3 -4 28 -18 56 -31
28 -14 58 -29 66 -34 8 -4 31 -16 50 -26 68 -36 75 -40 83 -52 7 -12 87 -53
103 -53 4 0 26 -18 50 -40 25 -23 49 -37 58 -34 18 7 66 -24 66 -42 0 -8 7
-14 15 -14 8 0 15 -4 15 -8 0 -5 18 -14 40 -21 23 -7 40 -18 40 -26 0 -10 10
-15 28 -15 19 0 40 -12 67 -40 21 -22 47 -40 57 -40 11 0 30 -11 44 -25 14
-14 31 -25 38 -25 21 0 79 -32 104 -57 12 -13 35 -29 51 -37 15 -8 40 -30 57
-48 16 -18 34 -34 39 -35 27 -4 105 -44 105 -53 0 -5 6 -10 14 -10 25 0 76
-35 76 -52 0 -19 16 -31 41 -33 9 -1 24 -9 34 -18 9 -9 22 -17 29 -17 7 0 22
-10 34 -22 29 -32 50 -48 61 -48 5 0 12 -6 14 -12 4 -10 6 -9 6 1 1 11 4 11
16 1 12 -10 13 -16 4 -26 -6 -8 -16 -14 -21 -14 -5 0 -23 -13 -41 -30 l-32
-30 28 0 c25 0 26 -2 15 -20 -12 -19 -13 -19 -34 1 -13 12 -20 28 -17 38 4 13
3 13 -5 2 -6 -8 -15 -10 -22 -6 -9 5 -11 4 -6 -3 4 -7 2 -12 -3 -12 -10 0 -15
14 -12 33 0 4 -4 6 -10 5 -6 -2 -13 7 -15 19 -3 15 3 24 16 28 11 4 20 11 20
17 0 5 -7 8 -15 4 -8 -3 -15 0 -16 7 0 7 -5 -1 -9 -17 -5 -16 -7 -34 -3 -39 3
-5 -3 -6 -16 -2 -15 4 -21 3 -19 -7 4 -17 -32 -12 -52 8 -12 12 -11 16 8 34
23 21 30 36 12 25 -5 -3 -10 -1 -10 4 0 6 9 11 20 11 11 0 20 4 20 9 0 13 -34
8 -43 -7 -4 -6 -6 -16 -3 -21 8 -13 -37 -22 -74 -15 -19 4 -41 20 -57 40 -14
19 -33 34 -43 34 -10 0 -42 16 -71 35 -30 19 -59 35 -65 35 -6 0 -17 7 -24 15
-7 8 -30 20 -52 25 -21 6 -56 26 -76 44 -20 18 -53 40 -73 49 -19 9 -43 25
-53 36 -11 12 -52 37 -93 57 -41 20 -79 44 -86 54 -7 9 -34 25 -60 35 -27 10
-51 24 -54 31 -2 7 -28 22 -56 34 -47 21 -50 23 -32 36 17 13 17 14 2 14 -26
0 -139 58 -178 91 -19 16 -42 29 -51 29 -9 0 -36 15 -61 34 -24 19 -53 37 -65
40 -11 4 -27 18 -36 31 -11 17 -26 25 -45 25 -28 0 -35 -6 -89 -75 -5 -5 -33
-39 -63 -75 -69 -82 -138 -177 -121 -166 7 4 20 2 29 -6 9 -7 34 -20 56 -28
22 -8 42 -20 44 -26 5 -15 -36 -25 -67 -17 -34 8 -23 -1 16 -14 24 -9 38 -7
63 5 41 19 85 7 89 -26 2 -14 13 -24 29 -28 37 -10 127 -56 147 -77 10 -9 26
-17 37 -17 25 0 69 -28 69 -44 0 -7 15 -17 34 -24 18 -7 53 -27 77 -45 24 -17
73 -47 109 -65 36 -19 77 -47 92 -63 15 -16 36 -29 47 -29 12 0 26 -9 33 -20
7 -11 18 -20 25 -20 7 0 13 -4 13 -10 0 -5 9 -10 20 -10 25 0 81 -40 74 -52
-3 -5 -2 -8 3 -7 17 4 62 -14 67 -27 3 -8 29 -25 58 -37 29 -13 67 -38 85 -55
17 -18 36 -32 42 -32 6 0 18 -11 27 -25 9 -14 22 -25 28 -25 6 0 37 -25 69
-56 31 -31 57 -51 57 -46 0 5 15 9 33 8 25 -1 33 -6 35 -24 4 -25 -6 -27 -56
-13 -20 6 -32 6 -32 0 0 -5 10 -9 23 -9 21 -1 22 -1 3 -15 -11 -8 -14 -15 -8
-15 7 0 12 -9 12 -20 0 -18 3 -19 21 -9 15 8 24 8 28 1 10 -16 44 -8 47 11 1
10 -2 15 -7 11 -5 -3 -7 -10 -4 -15 3 -5 -1 -6 -9 -3 -13 5 -12 9 8 25 26 21
46 25 46 9 0 -5 7 -7 14 -4 11 4 14 -1 13 -23 -3 -23 -7 -28 -29 -26 -20 1
-29 -5 -38 -27 -20 -47 -35 -55 -80 -41 -23 7 -40 18 -40 26 0 8 -3 14 -7 13
-17 -5 -51 26 -45 40 4 10 1 13 -7 8 -16 -10 -63 2 -56 14 3 6 -2 10 -13 10
-10 0 -27 9 -37 20 -10 11 -23 20 -29 20 -6 1 -29 9 -51 20 -22 11 -47 19 -56
20 -8 0 -26 12 -40 26 -13 14 -49 39 -79 55 -30 16 -64 35 -75 41 -11 7 -42
26 -70 42 -27 17 -65 43 -83 58 -18 15 -41 28 -51 28 -10 0 -33 11 -52 25 -19
13 -49 31 -66 39 -18 8 -49 27 -68 42 -33 25 -89 59 -142 86 -13 6 -23 17 -23
25 0 7 -8 16 -17 19 -49 16 -165 80 -174 96 -5 10 -32 29 -60 43 -71 37 -159
94 -159 105 0 5 -10 12 -22 15 -62 17 -78 27 -67 41 6 7 17 10 24 8 7 -3 18 3
24 15 6 11 20 23 31 26 20 6 27 29 12 39 -7 4 -52 -27 -75 -53 -5 -5 -18 -17
-29 -27 -176 -167 -308 -311 -308 -338 0 -2 30 -19 68 -36 37 -18 80 -41 95
-52 15 -11 53 -33 84 -50 30 -16 61 -34 67 -39 37 -31 76 -56 116 -77 72 -37
142 -79 149 -90 8 -14 119 -72 137 -72 8 0 14 -7 14 -15 0 -8 17 -22 37 -30
21 -9 47 -24 58 -35 11 -10 32 -22 48 -25 15 -4 32 -16 38 -26 5 -11 15 -19
22 -19 7 0 41 -19 76 -42 34 -24 76 -50 92 -59 16 -9 41 -29 54 -43 13 -14 31
-26 40 -26 8 0 23 -8 33 -17 23 -24 112 -79 139 -87 11 -4 24 -18 27 -32 4
-14 11 -22 15 -19 5 3 16 -1 24 -9 8 -8 17 -12 21 -9 3 4 6 1 6 -6 0 -7 7 -10
19 -6 21 6 46 -18 35 -36 -4 -8 -3 -9 5 -5 6 4 14 0 17 -8 5 -12 10 -13 25 -5
10 5 19 6 20 2 0 -4 2 -18 3 -30 2 -18 0 -20 -21 -12 -41 15 -73 11 -73 -9 0
-24 19 -42 36 -35 8 3 21 0 29 -7 11 -9 15 -9 15 -1 0 7 5 9 10 6 6 -3 10 0
10 7 0 8 6 22 13 32 13 17 14 17 30 1 9 -9 21 -14 26 -11 5 3 14 0 20 -8 9
-11 8 -18 -4 -30 -9 -9 -23 -16 -31 -16 -8 0 -17 -7 -20 -15 -4 -8 -10 -12
-15 -9 -18 11 -69 -7 -69 -24 0 -11 -10 -6 -35 18 -19 19 -35 31 -35 27 0 -4
-17 4 -37 18 -21 14 -42 25 -48 25 -6 0 -18 9 -28 20 -9 11 -24 20 -32 20 -22
0 -210 97 -275 141 -30 21 -71 44 -90 50 -19 7 -37 15 -40 19 -6 9 -179 119
-218 139 -15 8 -53 31 -85 53 -32 21 -69 41 -82 44 -13 3 -35 16 -47 29 -13
12 -52 38 -87 56 -35 18 -66 39 -69 47 -2 8 -24 22 -47 32 -23 10 -57 31 -76
47 -19 17 -58 42 -88 57 -29 14 -65 35 -78 46 -14 11 -30 20 -36 20 -23 0
-117 74 -117 92 0 10 -3 18 -6 18 -18 0 -104 -55 -104 -66 0 -8 -18 -25 -40
-39 -22 -14 -40 -29 -40 -34 0 -5 -21 -25 -47 -43 -48 -35 -133 -135 -133
-157 0 -7 9 -6 26 5 24 16 28 16 72 -5 26 -13 77 -43 113 -67 36 -24 70 -44
76 -44 5 0 23 -12 39 -27 16 -14 54 -39 86 -55 32 -16 83 -46 113 -67 30 -21
71 -42 90 -45 19 -4 35 -12 35 -19 0 -7 20 -23 45 -36 47 -25 221 -136 265
-169 14 -10 36 -25 50 -32 14 -7 34 -20 45 -30 11 -10 43 -30 72 -45 28 -14
57 -32 63 -40 6 -7 25 -19 43 -26 50 -20 89 -50 83 -65 -6 -17 6 -24 46 -29
30 -4 98 -43 98 -57 0 -4 17 -16 38 -28 38 -22 42 -29 44 -83 1 -20 4 -25 11
-18 17 17 26 13 20 -7 -3 -12 4 -22 21 -30 19 -9 24 -17 20 -37 -2 -14 0 -25
5 -25 6 0 22 -11 36 -24 15 -14 32 -27 38 -29 6 -2 8 -11 4 -20 -8 -20 -38
-22 -84 -5 -24 9 -33 18 -33 35 0 13 -6 23 -13 23 -6 0 -32 11 -57 24 -25 13
-62 29 -82 35 -21 7 -40 21 -43 32 -4 10 -15 19 -26 19 -27 0 -60 18 -84 47
-11 12 -43 31 -70 40 -28 10 -60 28 -73 41 -12 12 -30 22 -39 22 -18 0 -92 44
-125 74 -10 9 -57 36 -106 60 -48 24 -94 51 -101 60 -8 9 -21 16 -30 17 -9 0
-36 16 -61 35 -63 47 -70 52 -208 135 -175 105 -182 110 -247 154 -82 56 -122
81 -182 109 -28 14 -54 29 -57 35 -13 20 -98 71 -119 71 -12 0 -42 -16 -67
-35 -25 -19 -68 -50 -95 -69 -28 -19 -57 -41 -65 -51 -7 -9 -27 -23 -44 -32
-38 -19 -46 -30 -46 -63 0 -21 7 -29 34 -38 19 -7 68 -34 108 -61 70 -45 168
-102 315 -182 37 -21 72 -43 77 -51 14 -17 131 -78 150 -78 8 0 17 -8 20 -18
3 -9 34 -33 68 -52 35 -19 101 -59 148 -90 47 -31 114 -74 150 -95 36 -21 74
-46 85 -55 11 -10 41 -27 68 -38 26 -12 47 -25 47 -30 0 -13 93 -72 113 -72
10 0 17 -4 17 -9 0 -20 53 -58 104 -74 30 -10 61 -23 68 -30 22 -21 118 -87
126 -87 4 0 20 -6 35 -12 33 -16 31 -40 -3 -48 l-25 -6 27 -18 c16 -11 55 -20
100 -23 l74 -6 125 111 c69 61 138 125 153 144 14 18 30 36 34 40 4 4 30 27
57 51 122 107 175 160 283 282 64 72 151 166 193 210 105 109 253 278 303 345
22 30 43 57 46 60 3 3 21 25 40 49 19 25 44 54 55 66 48 52 219 285 245 335 7
14 47 71 89 127 79 105 181 260 246 373 21 36 53 85 70 110 34 47 86 142 161
294 25 50 50 98 54 107 13 25 0 30 -23 9 -14 -14 -25 -17 -37 -10 -10 5 -21 6
-25 2 -5 -4 -5 1 -1 12 5 14 3 17 -10 12 -16 -6 -58 15 -79 39 -5 7 -30 20
-55 29 -25 10 -52 25 -61 34 -39 41 -69 60 -103 66 -20 4 -40 14 -43 22 -3 7
-11 14 -18 14 -7 0 -15 3 -17 8 -1 4 -33 22 -71 41 -37 19 -76 43 -86 52 -11
10 -36 25 -57 34 -22 9 -43 21 -49 28 -5 7 -41 28 -79 47 -38 19 -82 48 -97
63 -16 16 -29 26 -29 23 0 -8 -58 21 -80 39 -8 7 -51 31 -95 55 -44 23 -98 57
-120 74 -22 17 -52 37 -67 44 -16 6 -28 18 -28 26 0 9 -16 20 -40 26 -22 6
-44 20 -50 30 -6 11 -19 20 -30 20 -10 0 -32 11 -48 25 -17 14 -34 25 -38 25
-5 0 -28 18 -52 40 -23 22 -51 40 -62 40 -22 0 -70 27 -70 40 0 4 -13 22 -29
38 l-28 31 -32 -32z m1539 -1457 c-6 -11 -15 -20 -20 -20 -16 0 -11 18 8 29
24 14 24 14 12 -9z m-436 -426 c3 -8 2 -12 -4 -9 -6 3 -7 -1 -4 -10 4 -9 13
-14 20 -11 26 10 20 -61 -7 -90 -17 -18 -24 -20 -45 -10 -27 13 -32 47 -9 66
10 9 15 9 15 1 0 -6 4 -11 9 -11 5 0 4 11 -2 25 -7 14 -15 25 -19 25 -9 0 24
38 33 39 4 1 10 -6 13 -15z m-312 -503 c-3 -16 27 -46 46 -46 9 0 17 -5 19
-12 3 -7 -3 -10 -15 -6 -14 3 -30 -5 -50 -27 -27 -28 -33 -30 -53 -19 l-23 12
27 13 c16 9 24 20 21 28 -3 8 -1 24 6 35 7 14 7 21 0 21 -5 0 -10 5 -10 11 0
6 8 9 18 7 9 -2 16 -10 14 -17z m-326 -510 c19 -24 5 -40 -31 -38 -45 3 -50
10 -34 46 11 25 16 28 34 19 11 -6 25 -18 31 -27z m-605 -324 c10 -9 23 -17
27 -17 5 0 9 -7 9 -15 0 -20 -12 -19 -45 2 -36 24 -52 39 -46 46 9 9 34 1 55
-16z m118 -84 c35 -21 53 -54 40 -74 -6 -9 -12 -10 -16 -4 -13 17 -48 41 -39
28 5 -9 0 -13 -13 -13 -12 0 -21 5 -21 11 0 5 5 7 11 4 5 -4 3 9 -5 29 -18 42
-7 47 43 19z"/>
<path d="M18703 4909 c-2 -23 3 -25 10 -4 4 8 3 16 -1 19 -4 3 -9 -4 -9 -15z"/>
<path d="M4860 6640 c0 -13 7 -20 20 -20 18 0 19 3 10 20 -6 11 -15 20 -20 20
-6 0 -10 -9 -10 -20z"/>
<path d="M19523 6625 c-1 -19 3 -32 8 -29 11 6 11 35 1 51 -5 8 -8 -1 -9 -22z"/>
<path d="M17419 6459 c-24 -24 -21 -53 6 -57 17 -2 20 4 22 38 0 22 -1 40 -3
40 -2 0 -13 -9 -25 -21z"/>
<path d="M19166 6085 c4 -9 13 -15 21 -13 23 5 20 23 -4 26 -18 3 -21 0 -17
-13z"/>
<path d="M3145 6060 c-4 -6 -11 -7 -17 -4 -7 4 -8 2 -4 -5 4 -6 12 -8 18 -5 7
4 8 2 4 -5 -4 -6 -11 -9 -16 -6 -10 6 -32 -20 -23 -28 13 -13 32 -7 38 13 4
12 11 17 18 13 8 -5 8 -2 0 9 -7 8 -10 18 -6 21 3 4 4 7 0 7 -3 0 -9 -5 -12
-10z"/>
<path d="M19233 6052 c-37 -19 -42 -32 -13 -32 11 0 20 -3 20 -8 0 -4 16 -16
35 -26 24 -13 32 -23 26 -29 -7 -7 -3 -17 11 -29 27 -23 36 -23 16 0 -9 9 -15
30 -13 46 3 21 -1 30 -17 34 -15 3 -16 7 -7 13 11 6 10 9 -4 15 -9 3 -17 10
-17 16 0 5 5 6 12 2 7 -4 8 -3 4 4 -9 15 -14 14 -53 -6z"/>
<path d="M3110 5986 c0 -2 7 -7 16 -10 8 -3 12 -2 9 4 -6 10 -25 14 -25 6z"/>
<path d="M17090 5965 c-19 -23 -4 -45 30 -45 32 0 38 14 16 43 -16 21 -30 22
-46 2z"/>
<path d="M18680 5769 c0 -5 5 -7 10 -4 6 3 10 8 10 11 0 2 -4 4 -10 4 -5 0
-10 -5 -10 -11z"/>
<path d="M3545 5649 c-11 -4 -15 -8 -8 -8 7 -1 10 -7 7 -14 -3 -8 5 -13 22
-15 24 -2 25 0 13 15 -8 9 -12 18 -11 20 7 9 -4 10 -23 2z"/>
<path d="M18870 5585 c0 -8 4 -15 10 -15 5 0 7 7 4 15 -4 8 -8 15 -10 15 -2 0
-4 -7 -4 -15z"/>
<path d="M3419 5566 c7 -8 4 -15 -10 -24 -10 -7 -19 -19 -19 -27 0 -8 -4 -15
-9 -15 -5 0 -7 -10 -3 -22 4 -16 2 -19 -9 -13 -10 5 -11 5 -4 -3 6 -6 22 -14
37 -17 21 -5 29 -2 39 17 7 12 14 39 15 58 1 29 -3 38 -23 47 -19 9 -22 9 -14
-1z"/>
<path d="M18951 5566 c-7 -8 -19 -12 -27 -9 -10 3 -12 0 -8 -10 5 -15 35 -18
33 -2 0 4 5 11 12 16 8 4 11 11 8 14 -4 3 -12 -1 -18 -9z"/>
<path d="M4000 5220 c-8 -5 -12 -11 -9 -14 2 -3 11 -1 19 4 8 5 12 11 9 14 -2
3 -11 1 -19 -4z"/>
<path d="M3939 5204 c-7 -9 -15 -28 -16 -43 -3 -22 -2 -23 7 -8 6 9 8 21 5 26
-3 6 3 14 12 20 10 5 15 12 12 15 -3 4 -12 -1 -20 -10z"/>
<path d="M16292 5068 c-18 -18 -14 -27 8 -21 21 6 26 18 12 27 -5 3 -14 0 -20
-6z"/>
<path d="M16350 5025 c-10 -12 -9 -16 3 -21 20 -7 37 3 37 22 0 18 -24 18 -40
-1z"/>
<path d="M17912 4795 c4 -4 0 -14 -8 -23 -14 -14 -14 -17 7 -28 13 -7 27 -10
31 -8 16 10 7 40 -14 53 -13 7 -20 10 -16 6z"/>
<path d="M6195 4699 c-4 -6 -5 -13 -2 -16 7 -7 27 6 27 18 0 12 -17 12 -25 -2z"/>
<path d="M6800 4425 c0 -24 42 -45 72 -37 33 9 25 23 -23 40 -45 15 -49 15
-49 -3z"/>
<path d="M15332 4088 c-5 -7 -15 -42 -22 -78 -6 -36 -15 -74 -20 -85 -26 -60
-54 -198 -46 -223 4 -10 29 -29 56 -41 28 -12 50 -29 50 -36 0 -7 15 -18 33
-24 17 -6 78 -39 133 -73 56 -35 117 -72 135 -83 89 -54 104 -65 114 -77 26
-33 102 -57 215 -68 63 -6 131 -15 150 -20 19 -5 85 -14 145 -19 61 -6 164
-18 230 -26 66 -9 190 -20 275 -25 85 -6 177 -14 203 -19 27 -4 50 -4 53 1 10
16 -61 37 -110 33 -27 -2 -67 2 -90 10 -22 7 -57 16 -76 20 -59 11 -140 47
-151 66 -5 11 -25 26 -44 34 -19 7 -35 18 -35 24 0 5 -24 17 -54 26 -33 11
-65 30 -85 51 -18 18 -50 38 -71 44 -21 6 -41 18 -44 28 -4 10 -29 24 -65 35
-33 11 -70 30 -83 44 -12 14 -43 35 -68 48 -41 21 -127 75 -212 132 -18 12
-61 35 -96 52 -34 17 -65 37 -68 46 -4 8 -25 24 -48 35 -57 28 -193 112 -240
149 -43 35 -49 36 -64 19z"/>
<path d="M7109 3727 c-91 -81 -153 -131 -202 -164 -28 -19 -56 -41 -60 -49 -4
-8 -34 -32 -65 -53 -31 -22 -79 -61 -107 -88 -42 -41 -46 -48 -30 -52 27 -5
332 19 375 30 19 5 56 9 81 9 45 0 148 16 157 24 6 7 -29 170 -41 184 -5 7
-16 47 -23 88 -12 70 -27 104 -43 104 -3 0 -22 -15 -42 -33z"/>
<path d="M5690 3504 c0 -8 5 -12 10 -9 6 3 10 10 10 16 0 5 -4 9 -10 9 -5 0
-10 -7 -10 -16z"/>
<path d="M5610 3446 c-5 -13 -20 -26 -35 -30 -38 -10 -75 -36 -75 -52 0 -10
12 -14 45 -12 47 1 60 10 66 42 4 19 17 29 54 41 19 6 19 7 -5 20 -34 19 -39
19 -50 -9z"/>
<path d="M15181 3444 c-49 -62 -14 -78 159 -75 53 1 44 13 -24 31 -29 8 -59
25 -74 42 -31 34 -35 35 -61 2z"/>
<path d="M16900 3290 c-12 -8 -9 -10 13 -10 15 0 27 5 27 10 0 13 -20 13 -40
0z"/>
</g>
</svg>
